<svg width="1009" height="579" viewBox="0 0 1009 579" fill="none" xmlns="http://www.w3.org/2000/svg">
<g style="mix-blend-mode:darken">
<mask id="mask0_128_678" style="mask-type:alpha" maskUnits="userSpaceOnUse" x="0" y="0" width="1009" height="579">
<rect width="1009" height="579" transform="matrix(1 0 0 -1 0 579)" fill="#D9D9D9"/>
</mask>
<g mask="url(#mask0_128_678)">
<g style="mix-blend-mode:darken">
<path d="M946.707 241.331L944.764 235.815L942.748 229.363L941.444 224.866L940.3 220.973L939.623 220.353L939.497 219.198L937.34 219.571L936.691 221.411L935.931 221.579L934.913 220.005L934.328 219.104L932.284 222.309L931.048 224.408L930.159 225.148L929.704 223.679L930.486 220.237L931.313 218.611L931.504 218.313L932.226 217.51L932.442 216.149L931.668 214.521L930.714 212.645L931.241 210.959L931.919 210.423L932.569 209.869L933.343 210.341L934.281 210.391L934.714 211.068L935.776 213.432L937.081 216.77L937.488 217.453L938.345 217.137L938.463 215.924L937.576 213.781L936.123 210.343L934.563 207.599L931.833 203.161L929.276 197.884L926.276 192.346L922.798 187.556L921.057 184.569L917.455 179.807L912.88 174.23L908.612 169.485L904.76 165.448L901.502 162.696L898.5 160.527L895.01 158.596L890.839 157.076L886.215 155.936L880.395 155.343L873.35 155.024L870.337 155.714L867.814 156.168L865.712 156.79L862.657 157.875L861.031 158.904L859.416 160.444L858.932 161.738L858.928 162.895L859.03 163.929L859.75 164.156L860.779 162.872L861.419 162.857L861.701 163.442L861.344 164.164L861.848 164.695L862.773 165.261L863.668 165.706L864.672 166.644L865.624 167.333L866.768 168.906L868.507 170.711L871.059 172.593L872.723 172.325L874.895 171.435L876.713 169.077L876.657 167.646L875.559 168.046L873.997 169.83L872.687 170.533L871.461 170.931L870.837 170.426L869.808 169.497L869.969 168.945L870.128 168.5L870.659 167.996L871.484 166.374L871.863 164.591L872.719 163.218L874.263 161.821L875.651 161L877.414 160.714L879.011 160.721L881.034 160.917L882.301 161.28L884.333 162.09L886.289 162.557L888.327 163.396L890.375 164.743L892.327 166.371L894.016 169.11L895.508 171.096L896.475 173.482L897.468 176.118L898.254 178.39L898.87 180.467L899.386 182.695L899.943 185.685L900.544 188.281L901.129 190.234L901.577 191.552L902.558 194.707L902.95 195.907L903.739 198.075L904.259 200.429L904.725 202.413L905.32 203.824L906.052 204.692L906.973 205.258L908.074 204.888L908.1 203.826L907.667 203.152L906.784 202.187L905.87 199.92L906.568 198.993L906.155 197.128L905.799 195.637L904.89 193.392L905.083 193.092L906.434 190.941L907.639 189.878L908.824 189.873L909.637 189.95L910.261 190.328L910.613 190.763L910.98 191.712L911.551 191.973L912.162 192.867L912.838 193.487L913.788 194.18L914.211 194.344L915.218 194.121L916.801 193.488L917.711 192.36L919.175 192.936L917.998 194.123L918.39 195.322L918.762 196.297L917.564 196.818L916.612 196.129L915.761 196.47L915.029 196.762L914.714 197.088L914.557 197.536L915.017 198.334L915.738 198.688L916.579 198.889L917.43 198.547L918.165 198.255L919.008 198.585L919.661 199.084L918.793 200.975L918.534 201.675L918.87 202.501L918.999 203.655L919.238 204.632L919.99 206.165L920.818 208.039L922.341 211.204L922.964 215.079L923.987 217.838L924.778 221.189L924.045 222.637L922.747 225.037L921.905 227.05L919.223 229.239L917.297 231.104L911.179 234.98L908.631 236.496L906.404 238.298L905.185 238.724L904.381 239.158L903.747 240.481L902.756 240.188L901.667 240.042L899.84 240.729L898.598 243.37L897.916 242.621L896.506 242.289L892.283 245.076L890.712 245.19L885.288 249.172L882.616 251.872L881.991 253.706L882.696 254.453L881.981 255.408L880.69 256.08L880.272 257.099L879.297 258.627L879.351 260.031L878.473 260.249L877.882 259.326L877.222 259.369L876.148 259.863L874.181 261.095L872.539 261.354L870.805 261.894L868.398 262.296L864.209 263.016L861.58 263.111L860.138 262.526L859.147 261.073L859.922 260.492L861.374 260.427L863.082 259.896L864.49 259.045L866.02 258.293L867.898 258.391L869.119 259.151L870.285 258.484L871.249 258.657L871.873 257.876L872.551 257.443L873.936 257.65L875.004 257.13L874.393 256.236L872.383 255.524L870.459 255.203L866.729 255.667L859.43 257.228L852.806 258.229L842.657 257.721L831.812 255.923L828.822 254.398L827.335 253.594L823.64 251.321L819.565 249.65L815.789 247.012L814.254 244.366L813.872 241.594L814.939 237.573L815.102 234.937L815.477 233.028L813.784 230.83L813.196 227.718L812.584 224.481L811.402 223.429L809.648 222.144L808.769 221.182L807.696 219.36L807.365 217.863L808.844 216.866L808.425 214.516L806.928 214.847L805.095 214.349L803.063 213.539L801.785 212.535L799.628 211.853L797.4 211.315L796.372 211.443L795.639 211.731L794.615 212.344L793.888 213.818L792.967 214.432L791.102 214.844L790.388 214.642L789.943 214.484L788.903 213.401L787.997 212.315L786.15 210.021L785.006 208.447L783.744 207.053L782.738 206.119L782.168 205.859L781.846 206.727L782.904 207.909L784.14 209.309L785.076 210.515L785.054 211.576L784.969 212.368L784.736 213.062L783.587 213.213L781.619 212.105L780.043 211.037L778.72 209.244L777.242 208.028L775.474 207.132L772.428 206.03L771.647 204.246L770.168 203.03L768.902 202.667L768.457 201.349L770.745 199.247L772.023 197.912L772.794 198.384L774.034 199.806L774.932 200.251L775.474 200.261L775.811 200.033L776.812 198.625L776.868 197.713L776.326 196.547L774.343 195.956L774.773 194.421L775.049 193.33L775.152 192.638L775.18 191.602L775.178 190.419L775.667 189.151L777.374 188.491L776.888 187.572L775.95 187.519L774.509 186.938L773.846 186.955L773.327 186.943L772.773 186.292L772.854 185.501L773.3 184.606L775.538 183.441L776.384 184.824L777.239 185.665L777.824 186.438L779.302 187.654L780.598 189.324L783.255 191.696L785.643 193.997L786.504 196.02L786.028 196.898L784.878 198.208L784.212 199.282L783.898 199.608L783.761 200.151L783.782 200.817L784.216 201.621L785.003 201.577L786.087 200.54L786.369 198.908L787.426 197.748L788.753 196.655L790.52 197.424L791.447 196.963L791.405 196.199L788.873 194.286L787.693 193.261L784.435 190.508L780.209 186.527L778.714 184.542L777.619 182.725L777.125 181.651L776.883 180.675L777.056 179.71L777.858 179.146L778.172 178.82L777.49 175.855L776.037 174.634L769.583 170.115L766.381 166.578L762.913 162.299L760.578 160.243L760.166 159.538L759.636 159.012L759.147 159.12L758.692 159.504L760.345 162.097L760.702 163.588L759.002 163.707L758.134 162.226L757.512 160.691L756.975 160.01L755.474 159.855L754.331 160.621L753.372 160.473L754.319 158.821L755.348 158.697L756.996 158.462L757.219 157.617L755.859 154.028L755.361 152.469L755.329 151.163L755.317 150.523L755.42 149.83L754.987 149.152L754.689 148.962L753.823 149.823L753.086 149.986L752.913 148.738L753.346 147.199L750.967 146.569L746.879 144.254L743.948 141.816L742.573 138.748L741.213 137.375L740.411 137.939L740.703 139.831L739.986 140.659L739.278 141.072L738.528 141.751L738.387 143.329L737.423 143.848L736.399 141.089L734.877 137.926L732.201 137.232L728.796 136.725L728.13 136.742L724.861 136.848L722.331 136.121L721.762 135.987L718.612 133.725L716.257 131.003L714.711 128.772L714.506 127.378L712.621 127.818L709.286 129.252L706.977 130.689L707.167 131.546L708.376 131.666L709.612 131.905L711.362 130.852L713.303 130.783L714.44 132.204L715.693 134.267L716.146 135.609L716.142 136.767L717.545 136.586L718.232 136.664L719.481 137.548L720.851 138.275L721.481 139.962L721.479 140.992L720.752 141.306L720.098 141.967L719.517 142.249L718.71 141.631L717.93 141.7L717.522 142.177L718.389 143.658L717.713 144.217L716.786 144.682L715.787 144.926L714.835 144.237L714.818 141.358L714.151 141.249L712.169 141.841L710.031 145.196L709.679 147.1L710.492 148.336L710.941 148.494L710.915 149.556L710.361 150.065L709.521 150.92L709.1 150.884L707.999 150.097L707.117 149.136L706.57 147.944L707.192 145.977L706.363 145.26L704.872 146.773L703.719 148.084L702.917 148.648L702.801 149.857L703.668 151.338L704.254 152.135L703.534 153.067L702.812 152.71L702.08 151.842L701.729 151.534L700.52 151.418L700.233 150.708L699.966 149.607L700.341 148.858L700.298 148.094L701.253 147.753L701.875 146.949L702.456 145.508L702.635 144.568L703.389 143.215L703.226 142.482L703.09 140.812L701.881 140.693L699.877 142.346L698.922 143.843L697.947 144.212L695.156 144.729L693.389 143.96L692.235 142.929L690.197 142.093L688.554 141.17L687.997 140.52L687.992 139.338L689.743 138.411L690.436 137.355L690.951 136.188L691.884 135.055L691.693 134.194L689.661 134.544L687.558 136.322L686.719 137.304L685.51 137.184L684.669 136.984L684.312 137.706L684.398 141.469L682.783 140.797L681.76 138.04L681.467 136.819L682.941 133.48L680.888 133.161L680.605 132.454L680.442 131.717L681.891 130.6L683.143 130.323L683.467 129.452L684.427 128.443L685.935 127.593L685.402 125.755L684.411 125.461L681.23 124.234L680.105 123.454L677.99 125.644L676.932 125.621L677.16 123.745L677.828 122.697L677.161 120.372L677.534 119.62L682.359 120.612L685.967 122.491L686.808 122.691L687.149 122.489L687.587 122.133L688.082 121.357L688.846 121.314L689.691 120.358L689.713 119.297L689.035 118.673L688.152 118.869L687.403 118.391L686.36 116.822L685.477 115.858L684.44 114.774L684.538 113.466L685.542 113.244L686.679 113.609L686.993 115.496L687.594 115.879L688.613 116.297L689.671 116.32L691.106 115.593L691.72 115.457L692.397 116.077L692.211 117.561L692.374 118.295L692.873 118.701L693.622 119.179L697.29 121.327L697.669 120.6L695.643 118.192L694.281 115.634L691.691 112.991L691.265 111.772L691.931 110.595L690.912 110.177L690.017 109.732L688.36 109.455L687.762 109.074L687.411 107.605L686.523 106.619L686.089 104.655L686.94 102.101L687.928 100.057L689.245 97.166L690.422 94.9231L691.076 94.2652L691.602 93.7357L692.985 93.9464L693.885 95.5737L694.528 97.7742L696.143 100.889L697.324 100.758L698.503 99.698L701.098 100.027L702.713 99.6436L703.162 98.6446L702.127 97.5837L701.321 96.9655L699.206 96.9431L698.242 96.7731L697.456 96.817L696.724 95.9491L695.744 95.1359L695.251 92.9024L695.229 91.7508L695.279 89.6538L696.146 87.6359L697.951 86.9535L700.271 87.3171L702.049 87.5671L702.676 86.7854L702.9 86.066L703.404 85.438L704.093 82.1466L705.204 81.2344L706.169 80.248L707.198 78.964L707.767 78.0418L709.031 77.2459L711.339 76.9688L712.218 75.5916L711.946 72.1491L710.668 72.3052L708.972 75.8192L708.359 75.9548L708.523 73.3193L708.586 69.5229L707.162 69.6047L704.946 69.7114L704.544 71.4964L703.935 72.8139L703.433 74.6246L703.106 75.4699L701.524 76.1031L700.935 72.9907L699.764 71.2936L700.486 70.4908L702.805 67.3522L702.622 65.9531L701.657 65.7798L699.844 68.16L699.109 67.2929L698.091 66.8781L697.045 66.3363L695.538 66.153L693.316 65.6413L691.223 65.7173L691.224 64.5608L691.792 63.6354L695.386 63.7173L697.04 62.9383L698.134 64.2693L699.879 64.37L701.441 62.5852L703.234 62.3154L704.263 62.1912L705.265 60.7866L708.713 59.741L710.979 58.7002L714.264 55.8644L717.017 54.5859L718.249 53.6438L719.554 54.7714L720.074 54.7864L720.91 53.802L722.459 51.3765L723.174 50.4187L724.405 49.4767L726.28 48.5224L727.544 48.8862L728.67 49.6669L729.089 49.8308L730.145 48.6708L730.72 47.774L731.994 47.5957L732.862 46.7605L733.686 46.2952L734.33 45.123L734.774 44.225L735.181 43.622L735.843 42.5491L735.703 38.5379L736.679 37.0125L737.208 36.3789L738.944 35.9685L740.451 36.1519L740.466 36.7918L740.727 37.4037L740.688 37.7989L740.549 38.343L740.999 38.63L741.35 38.9389L741.431 39.3042L741.273 39.7523L740.689 40.1381L740.389 41.1041L740.341 42.0446L740.201 42.5886L740.513 43.2928L741.235 43.6464L742.281 43.0285L742.985 41.4334L742.737 40.4318L742.846 39.7646L743.86 39.0005L744.174 38.6744L744.65 37.7961L744.971 36.9286L745.34 35.6874L745.758 34.6686L745.632 33.5133L745.01 31.9781L745.515 31.3533L746.136 30.5461L746.999 29.6855L747.004 28.6546L747.086 27.8634L747.829 27.0328L748.657 26.5897L749.753 26.1941L750.245 26.0853L750.853 25.8209L751.407 25.4152L751.383 24.1341L751.302 23.7687L750.794 23.3379L750.604 22.4801L750.565 21.7157L750.16 21.1622L749.359 20.5695L749.368 20.0242L748.81 19.2479L747.331 19.1884L745.51 19.2309L744.643 18.9095L743.965 18.2862L743.315 17.7868L743.012 16.4143L742.819 13.3412L742.288 12.6887L741.598 12.5814L740.769 11.8648L740.319 11.5778L739.708 11.8428L738.422 13.6968L737.663 13.7612L737.161 13.3592L736.06 14.8889L734.785 16.2237L734.46 18.2516L732.85 20.977L732.036 21.9534L731.912 23.1405L732.34 24.4856L732.815 24.767L733.18 24.6863L733.645 24.4535L734.323 25.0768L734.416 26.0859L735.042 26.4607L735.5 27.2626L735.271 29.1393L735.155 30.348L735.016 30.892L734.474 30.8851L733.876 30.5008L733.482 30.5879L733.053 30.9661L732.684 31.0476L731.841 30.8509L730.782 30.825L730.295 31.0627L729.899 31.0202L729.585 30.1898L729.764 29.2505L731.364 28.227L731.923 27.8469L732.133 27.5171L732.003 25.873L730.686 25.2645L729.597 25.1186L728.02 25.2072L727.087 25.0538L726.308 24.5596L725.647 24.6023L724.779 24.2777L724.166 24.4133L724.138 25.4491L724.442 26.8248L724.534 27.7044L724.403 28.2731L723.477 28.8644L722.626 29.2058L722.013 29.3414L722.039 30.6218L722.181 31.2604L722.166 31.7802L721.73 32.1331L720.588 31.7426L720.225 30.7932L720.21 30.1533L719.975 29.6653L719.559 29.6539L718.919 29.6655L718.432 29.9033L717.52 32.1875L717.006 32.3013L716.354 31.6756L716.166 30.9441L715.933 30.479L715.553 29.9199L714.685 29.5985L714.604 29.23L714.707 28.5373L714.341 27.5886L713.732 26.5669L712.903 25.8503L712.643 25.3647L712.725 24.5768L712.844 23.3674L714.239 22.0027L715.652 22.3335L716.996 23.0659L718.058 23.0878L718.899 23.2885L719.863 23.4617L720.758 23.907L722.113 24.0973L722.373 23.5234L720.692 21.9656L720.188 21.4338L719.538 20.9344L718.553 20.0959L716.971 19.5726L715.269 19.5622L713.815 19.4972L712.882 19.47L711.794 19.3273L710.802 19.0302L709.378 19.2185L708.389 19.977L707.436 20.4442L707.02 20.4329L706.722 20.2423L706.798 19.4257L707.154 18.7037L707.221 18.4323L707.625 17.8032L706.104 16.9831L704.803 17.0374L703.675 17.2868L703.579 17.4382L702.836 18.2688L701.936 18.8544L701.15 18.9015L700.554 18.6468L700.461 17.6377L700.992 17.1336L701.514 16.4784L701.421 15.4693L701.2 14.5916L700.614 13.6915L700.511 13.3278L700.429 12.9592L700.002 11.6142L700.67 10.5667L700.517 9.28749L699.867 7.62838L699.321 6.43944L699.116 6.09833L699.363 6.04353L700.068 5.62784L701.266 6.26619L703.054 8.31329L703.834 9.97043L704.837 12.0647L706.635 14.1366L706.783 14.2338L708.086 15.2318L708.548 16.1595L709.117 16.2903L709.812 16.5233L710.695 16.328L711.097 15.8259L711.209 15.1579L711.128 14.7894L710.896 14.3275L710.445 12.9842L708.3 10.4993L706.599 8.27619L705.113 5.7487L702.844 2.23498L700.844 -1.33528L699.252 -4.22575L698.656 -5.64022L698.137 -6.70838L697.594 -8.00459L697.009 -9.95795L696.625 -11.5726L695.976 -13.2286L694.506 -12.777L695.069 -8.60265L695.378 -7.89789L694.597 -7.82849L693.414 -7.82691L692.927 -7.58925L691.881 -7.07473L690.006 -7.17339L688.322 -7.57408L686.923 -8.55104L685.752 -9.06546L682.348 -9.5724L680.663 -9.97303L679.835 -10.6896L679.076 -11.6815L679.303 -12.4015L680.404 -12.7717L682.034 -12.6188L684.425 -11.3447L684.75 -11.1598L686.488 -11.5708L688.452 -12.8015L689.632 -13.9888L691.401 -14.2499L692.279 -14.4706L693.367 -14.3247L694.257 -15.0646L695.118 -15.255L694.381 -17.3048L693.292 -20.9497L692.541 -23.6394L692.134 -25.3755L691.061 -28.3576L690.665 -28.2933L688.968 -27.1217L687.571 -25.7563L686.146 -24.5148L685.468 -23.9784L684.833 -23.9413L682.698 -24.629L680.188 -25.7469L677.918 -27.0446L676.628 -27.5324L675.215 -27.8631L673.583 -28.1455L671.741 -28.0981L670.129 -27.7151L668.443 -26.9592L666.992 -25.8384L664.389 -23.4103L662.215 -21.4898L661.445 -20.7799L660.308 -19.9852L658.411 -19.0259L655.284 -17.7948L653.29 -16.6841L650.047 -15.3005L648.935 -14.5116L648.192 -13.6809L647.185 -12.2985L646.383 -10.6815L645.395 1.14369L630.95 0.168566L624.765 5.37148L621.741 11.1354L626.075 25.3863L624.593 25.1973L621.91 25.0441L619.489 24.8096L617.641 24.8316L616.274 25.1605L614.805 25.6121L613.325 26.6089L613.181 26.7708L612.269 27.7689L611.677 28.6961L611.109 29.6216L610.047 31.9159L609.223 34.5941L608.15 37.4305L606.055 41.4428L588.214 45.2607L538.93 55.024L491.169 63.884L484.21 65.116L478.254 66.2263L441.591 72.8893L406.439 79.2983L393.151 81.6965L371.277 85.6562L340.252 91.4091L292.867 99.983L279.943 102.401L275.396 103.253L256.608 106.737L245.757 108.753L217.864 113.656L207.059 115.532L205.899 134.034L205.018 147.738L204.344 158.541L202.965 181.519L202.809 183.61L201.661 203.089L200.832 215.985L199.741 232.002L198.53 249.921L196.309 283.173L195.406 305.863L197.919 311.639L199.531 315.322L201.175 314.958L226.478 309.751L232.969 308.729L233.22 308.7L237.276 307.956L242.586 307.066L243.872 306.831L274.033 301.709L290.431 299.06L290.996 298.935L291.688 298.809L293.269 298.509L299.812 297.373L307.984 295.926L313.922 294.846L322.231 293.086L339.202 289.537L340.194 295.419L341.012 300.513L350.727 296.616L350.656 291.173L351.289 290.313L351.612 289.446L351.596 288.676L351.143 287.44L361.183 285.013L366.901 284.339L375.294 283.54L381.536 282.443L382.334 283.836L382.971 283.695L386.929 282.973L388.965 281.007L398.197 277.603L401.648 276.916L408.796 275.49L411.996 274.832L414.253 274.333L434.418 270.441L442.745 268.883L445.758 268.194L458.235 265.615L477.714 261.412L477.84 261.407L484.707 260.226L489 259.506L504.922 255.86L510.421 255.004L511.79 254.804L517.144 253.877L528.975 251.518L546.648 247.997L547.793 252.016L573.937 245.13L595.924 239.238L600.395 238.043L608.125 236.001L622.541 232.171L632.041 229.864L633.993 239.159L636.418 250.717L639.482 264.682L647.965 260.8L648.506 261.967L648.421 262.759L648.399 263.817L648.821 265.14L649.909 267.498L650.48 268.918L651.285 270.693L651.649 271.642L651.747 272.677L651.623 273.861L651.422 275.861L651.41 276.381L651.639 276.843L651.902 277.325L652.282 277.884L652.418 278.5L652.212 279.316L651.985 280.036L651.589 281.153L651.778 282.011L651.88 283.045L652.542 284.185L653.153 285.079L653.728 287.678L654.161 288.356L654.634 288.764L655.441 289.385L656.243 289.981L656.703 290.779L657.11 291.462L657.667 292.109L658.02 292.548L659.841 293.095L667.645 295.461L672.912 297.053L682.08 305.343L681.989 304.464L682.818 304.024L684.308 305.88L684.946 306.899L685.64 307.129L686.66 306.39L686.628 305.084L687.175 304.063L687.542 303.852L688.113 305.272L688.98 306.753L689.618 306.612L691.207 304.948L693.554 303.116L694.102 300.242L694.417 298.757L695.853 296.996L697.511 295.06L697.577 293.606L697.343 290.802L697.49 288.556L698.288 286.937L698.964 285.218L698.992 283.129L698.353 280.824L697.156 279.133L696.869 278.423L697.112 277.186L697.602 275.922L697.438 274.002L697.883 271.947L698.701 274.366L699.108 277.262L699.855 277.61L700.874 279.187L701.432 278.804L701.908 277.929L702.071 278.663L702.71 280.864L702.846 282.637L700.786 287.414L698.901 290.174L699.011 292.875L699.261 294.006L699.42 295.901L699.084 297.288L697.457 301.687L694.789 306.729L692.946 309.092L691.526 311.516L690.29 313.615L690.251 314.01L691.104 314.852L695.34 314.918L695.405 315.677L704.84 315.983L705.55 317.912L705.523 321.288L705.837 322.121L706.243 322.675L706.519 323.923L706.313 324.742L706.059 325.338L705.826 326.033L705.716 326.7L705.783 327.588L705.858 328.498L705.977 329.628L706.373 330.724L706.811 331.53L707.69 332.492L709.142 333.587L715.917 353.86L717.402 358.6L717.824 359.923L718.653 359.483L719.803 358.173L720.632 357.733L721.5 358.057L722.449 357.691L722.75 356.595L721.901 355.213L721.239 354.073L721.076 353.336L720.943 352.852L719.907 351.768L717.15 349.548L715.506 347.466L715.573 346.138L716.998 345.953L719.104 347.673L720.353 348.557L721.306 348.09L722.811 350.586L724.292 350.772L726.474 350.393L726.974 348.586L726.254 347.199L726.06 345.159L725.739 343.814L724.899 342.456L723.182 340.75L722.369 339.514L721.799 338.097L721.59 334.361L721.401 331.29L721.401 330.13L721.748 329.257L722.496 329.735L723.221 331.144L723.405 333.033L723.437 335.495L723.318 336.708L723.52 338.206L723.891 339.177L725.127 340.577L726.742 341.249L727.76 341.667L729.008 343.707L729.266 344.167L730.936 348.583L731.917 350.579L732.08 351.316L731.645 351.669L730.319 351.732L729.95 351.813L729.5 352.683L728.15 352.621L726.681 353.076L725.57 353.992L724.785 355.218L726.232 355.132L729.504 355.025L731.228 355.03L733.13 356.412L733.948 358.831L734.706 359.819L735.28 360.079L735.898 359.273L735.818 357.748L735.509 357.043L735.465 356.256L735.411 354.852L737.753 352.994L738.382 351.182L740.945 350.206L744.093 350.126L744.768 349.694L744.756 349.053L744.415 348.099L744.467 347.161L744.468 346.004L744.674 345.186L744.031 344.145L743.423 343.25L742.431 342.956L742.276 340.517L744.492 341.574L745.309 340.49L746.204 340.935L746.3 341.944L747.059 342.936L748.199 343.327L748.728 343.853L749.205 344.261L749.677 345.703L750.132 347.172L750.7 347.302L751.185 346.012L750.75 345.205L750.642 344.716L750.657 344.199L750.137 343.128L750.642 342.503L750.631 341.863L750.858 339.983L751.748 339.246L753.179 339.19L753.872 339.293L754.183 338.968L753.31 337.461L752.47 336.104L751.439 335.043L750.801 334.027L750.796 332.845L747.43 329.601L746.644 328.488L745.679 328.315L744.85 328.755L744.076 328.283L743.372 326.379L743.854 326.119L743.952 324.811L744.668 323.983L746.473 325.513L748.271 327.585L749.82 328.532L750.346 328.003L750.129 325.865L750.575 323.81L749.446 320.557L749.891 318.503L751.246 318.693L753.301 321.354L754.45 323.416L756.41 322.723L755.051 319.138L751.556 316.025L749.303 313.051L748.393 310.91L748.117 308.501L747.885 305.823L749.027 302.715L749.95 305.623L750.506 307.43L751.292 308.546L752.463 310.239L752.841 311.829L754.694 314.148L756.742 313.282L758.748 312.816L760.325 314.01L760.965 316.211L762.28 317.85L763.056 319.504L764.307 321.544L765.382 323.392L766.384 324.2L766.779 324.24L766.854 321.084L766.6 319.467L766.015 317.514L765.214 315.761L764.381 313.86L761.615 313.211L761.014 311.775L762.315 310.561L763.647 310.649L765.057 310.981L765.725 311.093L767.229 311.247L768.26 311.149L769.153 310.412L769.778 309.757L769.837 308.844L771.029 308.297L771.636 309.193L772.981 309.925L774.364 309.08L774.813 308.081L774.543 306.981L772.466 305.38L770.619 305.402L767.508 303.904L768.51 302.499L769.178 301.449L771.81 301.357L773.724 302.22L775.799 301.478L777.35 301.395L778.557 302.541L779.437 303.506L780.011 303.766L781.024 302.998L780.726 301.651L781.622 299.884L780.657 296.212L779.269 293.659L780.316 293.044L782.402 294.099L783.053 293.442L781.844 292.163L781.204 291.122L780.322 290.161L779.125 287.309L777.173 284.525L777.641 283.625L780.56 285.423L781.77 285.542L783.672 286.924L784.024 287.359L782.48 287.471L782.467 287.987L783.769 289.115L785.009 289.354L786.376 290.082L787.628 290.965L788.435 291.016L788.412 289.735L787.517 288.13L787.742 287.414L787.309 286.736L785.623 286.209L784.798 284.332L786.316 284.1L787.309 283.237L786.994 282.507L786.014 281.694L785.001 281.302L783.639 279.903L782.415 279.147L781.033 277.78L781.142 277.11L783.504 278.133L784.465 278.411L784.723 277.707L784.046 277.087L782.81 275.688L783.484 275.255L784.791 274.067L785.56 273.353L785.82 272.783L786.231 272.305L786.822 272.535L786.703 273.747L786.72 275.57L787.125 276.123L788.637 276.432L790.615 276.998L792.052 276.294L793.19 275.502L793.857 275.611L794.386 276.137L795.091 276.885L795.716 277.39L796.342 277.764L797.92 277.802L798.256 278.628L797.378 280.008L796.564 282.141L795.942 284.108L795.491 284.977L796.634 285.368L797.486 283.87L798.354 281.978L799.628 279.484L799.844 278.123L799.694 276.87L798.902 275.732L797.682 273.816L797.44 272.84L798.55 271.924L800.03 271.984L801.412 271.138L801.503 270.962L802.523 270.223L803.297 269.535L803.878 269.253L804.23 269.562L804.467 270.05L803.504 272.219L803.352 273.282L802.229 274.713L801.796 276.252L802.815 276.67L803.72 276.57L804.94 274.99L805.123 276.39L806.603 279.948L805.123 280.945L801.897 282.994L799.967 286.02L800.178 287.547L800.624 287.831L802.769 286.817L803.457 285.739L803.827 284.501L804.965 283.709L806.401 284.161L807.528 286.228L808.682 287.259L808.047 288.456L806.785 289.275L803.815 289.572L802.375 290.277L801.929 291.172L802.909 291.985L804.373 292.561L805.783 291.839L807.116 291.931L808.285 292.442L808.107 293.385L804.307 296.334L804.539 297.853L805.449 298.938L807.028 301.318L807.001 302.354L806.836 304.986L806.582 305.689L806.505 306.502L807.736 307.773L807.943 310.457L808.239 311.677L809.139 313.305L809.87 314.172L810.389 315.344L808.779 318.069L808.833 320.527L808.821 323.385L808.621 325.386L807.682 326.493L804.643 329.278L803.818 330.9L804.691 332.406L805.406 332.608L805.965 331.068L807.305 330.619L808.405 331.405L809.818 331.736L811.136 332.344L811.676 331.172L812.653 328.613L815.108 324.931L818.443 322.211L820.339 322.408L822.079 321.897L823.461 321.052L822.931 318.183L822.696 316.535L823.011 315.049L823.347 314.822L824.356 315.782L824.571 317.794L825.2 319.481L825.579 319.913L826.462 319.718L829.851 318.403L831.817 317.168L834.122 316.892L834.04 316.523L833.552 314.418L833.375 309.672L834.036 308.47L835.055 308.888L836.918 313.004L837.335 314.198L836.267 315.878L836.771 316.409L838.115 315.856L838.728 315.72L839.21 315.457L841.221 315.012L842.307 314.106L842.864 313.596L844.385 312.203L845.385 310.799L846.832 308.497L847.877 305.539L846.3 303.289L848.318 302.303L849.824 297.928L850.351 296.242L850.626 295.151L850.08 292.803L851.463 290.797L853.239 288.705L853.603 287.441L854.266 286.369L855.691 286.183L856.671 286.997L857.035 288.072L857.348 288.776L857.57 289.784L858.042 290.062L858.788 291.57L858.627 292.122L858.046 293.564L858.302 294.15L860.474 293.257L862.914 291.148L864.025 288.02L864.686 285.661L867.143 284.321L869.846 284.084L873.006 285.701L873.315 285.349L875.005 284.719L877.06 282.152L879.65 281.296L880.793 281.687L881.525 281.501L881.58 280.586L880.697 279.625L881.618 277.852L883.896 277.452L887.286 278.348L887.741 279.817L886.507 280.76L885.118 281.58L884.918 282.424L884.035 282.619L883.097 282.567L883.221 284.755L883.958 286.805L884.706 287.283L885.318 287.018L886.537 285.435L886.344 283.522L889.487 279.921L893.937 276.311L895.39 275.194L896.187 273.448L896.978 273.529L898.019 272.886L899.877 272.322L902.972 270.841L907.118 270.514L910.387 268.069L914.228 265.88L917.39 264.128L920.315 263.041L922.111 262.904L924.175 261.521L927.563 260.206L930.652 258.7L932.917 257.656L935.349 258.404L937.02 259.451L937.864 259.651L938.727 259.95L939.069 258.588L937.968 257.802L939.296 257.868L940.585 257.067L942.319 255.474L942.905 256.271L941.984 259.203L943.545 259.631L944.753 255.195L944.934 252.53L943.199 249.567L942.599 246.974L942.176 245.755L940.646 245.346L939.871 246.031L939.033 247.016L937.905 247.266L937.331 247.006L936.196 246.637L935.949 245.639L936.652 244.04L936.274 243.611L935.175 244.007L934.671 244.635L933.276 245.996L932.719 245.35L932.123 243.935L932.352 242.058L932.595 239.662L933.923 238.572L936.053 238.074L936.313 237.504L935.549 235.33L935.782 234.635L935.224 233.859L936.498 232.521L935.951 231.329L934.2 230.043L933.617 229.272L934.147 228.639L935.502 228.829L936.953 229.924L937.431 229.175L937.888 227.761L938.814 227.17L940.114 229.329L941.095 231.324L941.733 232.34L942.086 232.778L943.457 237.004L944.755 240.886L946.06 244.226L946.435 245.816L946.062 246.568L946.277 247.421L946.276 248.577L946.699 250.956L947.095 253.338L946.185 255.625L945.55 260.321L946.589 261.401L947.886 257.849L948.498 255.371L948.645 250.913L947.947 246.125L946.707 241.331Z" fill="#F8F9FA" stroke="#202E77" stroke-opacity="0.3" stroke-width="1.3"/>
<path d="M716.958 24.6437L716.238 24.4164L715.478 24.4579L715.049 24.9625L715.235 25.6946L715.618 26.253L716.09 26.5352L716.985 26.9804L717.9 27.0347L718.79 26.298L718.779 25.6575L718.222 25.0075L716.958 24.6437Z" fill="#F8F9FA" stroke="#202E77" stroke-opacity="0.3" stroke-width="1.3"/>
<path d="M696.139 128.349L695.261 129.727L694.8 131.141L694.8 132.301L695.142 133.152L695.646 133.684L696.338 133.787L697.407 133.268L697.927 132.123L698.084 131.675L697.786 130.328L698.019 129.633L698.34 128.763L698.356 128.246L698.096 127.66L697.283 127.583L696.139 128.349Z" fill="#F8F9FA" stroke="#202E77" stroke-opacity="0.3" stroke-width="1.3"/>
<path d="M705.557 134.272L705.932 133.646L706.165 132.951L706.029 132.338L705.228 131.745L704.711 131.729L704.469 131.913L704.306 132.336L704.159 133.421L703.434 134.225L702.474 135.236L701.997 135.985L702.256 136.571L702.705 136.855L703.396 136.962L704.24 137.162L704.88 137.147L705.216 136.816L705.259 136.42L705.092 135.787L705.178 134.999L705.557 134.272Z" fill="#F8F9FA" stroke="#202E77" stroke-opacity="0.3" stroke-width="1.3"/>
<path d="M940.743 234.388L940.855 233.72L940.692 232.983L940.32 232.009L939.968 231.574L939.468 231.168L939.193 231.102L938.949 231.156L938.857 232.489L938.585 233.579L938.819 234.067L939.684 234.362L940.254 234.496L940.743 234.388Z" fill="#F8F9FA" stroke="#202E77" stroke-opacity="0.3" stroke-width="1.3"/>
<path d="M940.425 240.966L939.717 241.382L939.472 241.436L939.341 242.005L939.57 242.468L940.197 242.846L940.713 242.859L941.283 242.993L941.619 242.762L941.688 242.49L941.565 241.36L941.456 240.867L940.86 240.613L940.425 240.966Z" fill="#F8F9FA" stroke="#202E77" stroke-opacity="0.3" stroke-width="1.3"/>
<path d="M942.191 284.121L941.935 285.873L941.339 287.835L940.228 289.907L939.717 291.076L939.728 291.717L940.324 291.971L940.898 292.228L941.316 292.265L941.712 292.308L943.299 291.8L945.049 289.587L944.158 277.174L944.478 272.805L944.338 268.797L944.106 267.175L944.173 265.848L944.008 263.928L943.749 263.342L943.494 262.885L942.231 262.521L941.728 263.172L941.879 264.425L941.802 265.239L941.977 266.616L942.34 267.566L942.36 268.231L941.759 269.007L941.017 269.841L941.461 271.156L942.1 272.301L940.854 273.763L940.11 274.467L940.705 275.878L941.442 277.928L942.162 281.654L942.191 284.121Z" fill="#F8F9FA" stroke="#202E77" stroke-opacity="0.3" stroke-width="1.3"/>
<path d="M855.424 291.954L855.358 291.069L855.125 290.604L854.708 290.57L854.611 290.718L853.656 291.059L853.038 291.865L853.022 292.382L853.158 292.995L853.175 293.661L853.488 294.365L853.976 295.413L854.397 295.45L855.038 295.438L855.861 294.973L856.145 294.524L856.323 293.581L855.884 292.752L855.424 291.954Z" fill="#F8F9FA" stroke="#202E77" stroke-opacity="0.3" stroke-width="1.3"/>
<path d="M772.924 321.648L773.754 321.334L774.291 321.319L774.648 320.597L771.359 317.722L770.828 316.01L768.959 315.936L769.283 320.78L769.547 321.388L770.891 321.994L772.924 321.648Z" fill="#F8F9FA" stroke="#202E77" stroke-opacity="0.3" stroke-width="1.3"/>
<path d="M793.867 347.356L795.134 346.563L796.055 344.789L797.383 343.696L799.075 342.395L800.599 342.189L804.756 336.664L803.564 334.998L801.46 334.434L800.105 334.243L798.1 338.212L796.772 339.302L795.342 339.362L794.137 340.425L793.2 341.535L792.454 343.526L791.346 344.441L790.717 345.093L789.661 346.253L788.495 348.08L788.127 348.162L787.276 348.506L786.746 349.137L786.561 350.621L785.293 351.414L784.537 352.638L784.348 354.119L784.175 356.244L785.166 357.697L787.377 357.568L789.111 355.872L789.937 354.376L791.784 353.172L793.144 352.228L793.602 350.814L793.271 349.317L792.337 348.107L793.383 347.49L793.867 347.356Z" fill="#F8F9FA" stroke="#202E77" stroke-opacity="0.3" stroke-width="1.3"/>
<path d="M853.037 368.681L852.322 368.479L851.725 368.098L850.923 367.502L850.117 365.724L850.09 364.444L849.087 362.453L847.618 360.588L847.495 359.562L847.7 358.744L848.122 357.621L847.739 356.009L844.808 355.911L841.506 354.708L840.163 354.105L839.882 354.581L840.668 355.693L839.068 356.717L837.139 356.37L836.543 354.959L836.197 353.979L834.967 353.891L834.409 350.899L835.508 350.503L837.236 352.85L838.517 353.183L839.376 352.863L838.414 351.663L837.459 349.788L837.075 346.887L836.452 345.352L835.79 344.212L835.234 343.565L834.23 342.627L832.747 340.229L831.591 340.355L829.097 343.272L828.664 344.811L830.209 346.912L829.818 348.055L828.762 349.215L828.197 351.426L827.487 352.869L826.636 353.211L826.332 351.838L826.241 349.799L826.306 348.342L826.724 347.323L826.438 346.616L825.907 343.748L825.933 340.37L824.726 339.223L822.309 340.168L819.966 343.182L820.737 344.814L821.84 346.653L821.093 347.461L818.893 345.892L817.994 345.444L814.324 347.338L813.007 349.069L812.643 351.492L810.54 353.27L809.209 354.361L808.043 356.188L807.013 358.629L806.464 362.536L805.857 366.196L803.358 367.931L803.006 369.835L802.778 371.712L802.099 373.408L800.745 376.717L800.012 379.221L799.649 380.485L799.947 381.835L800.385 383.694L800.997 385.772L800.807 387.23L800.872 388.115L799.979 388.853L799.262 388.625L798.785 388.217L798.05 388.506L797.145 388.606L796.087 387.424L796.273 385.94L796.988 384.985L798.527 384.258L798.072 382.789L789.379 383.502L788.278 383.875L786.544 384.412L785.32 384.812L784.82 385.463L784.572 386.674L786.615 388.695L790.553 392.07L793.849 394.3L795.388 394.733L797.419 395.544L799.875 396.417L801.088 396.535L801.842 396.342L802.319 395.593L802.303 392.611L802.546 390.215L803.372 388.719L804.444 387.042L806.302 385.319L820.426 379.597L826.949 377.565L836.009 374.428L841.005 373.167L843.015 372.7L844.68 372.561L846.989 372.181L849.46 371.481L851.481 371.651L853.065 371.147L854.928 370.605L856.295 370.277L857.703 369.425L857.34 368.476L853.037 368.681Z" fill="#F8F9FA" stroke="#202E77" stroke-opacity="0.3" stroke-width="1.3"/>
<path d="M780.483 360.842L782.17 360.213L783.103 359.08L783.1 357.894L782.218 356.933L780.497 356.954L779.07 357.012L777.553 357.371L776.695 357.561L776.165 358.194L776.972 359.972L778.517 360.917L779.699 360.912L780.483 360.842Z" fill="#F8F9FA" stroke="#202E77" stroke-opacity="0.3" stroke-width="1.3"/>
<path d="M774.989 361.72L774.624 360.644L774.149 360.363L772.11 362.9L770.647 364.663L769.102 365.931L766.28 366.325L765.305 366.694L765.005 367.66L765.66 369.341L766.435 369.816L767.748 369.243L768.876 368.993L771.156 368.589L773.502 367.791L775.225 366.74L775.859 365.417L775.98 364.23L775.249 363.362L774.989 361.72Z" fill="#F8F9FA" stroke="#202E77" stroke-opacity="0.3" stroke-width="1.3"/>
<path d="M761.221 370.093L761.206 369.453L761.652 368.558L761.028 368.179L760.132 369.947L759.049 370.986L757.602 372.233L756.852 372.912L756.8 373.85L757.032 374.311L758.132 375.098L760.977 373.646L762.012 372.387L762.524 371.221L763.231 370.805L763.704 370.034L762.772 370.007L761.221 370.093Z" fill="#F8F9FA" stroke="#202E77" stroke-opacity="0.3" stroke-width="1.3"/>
<path d="M861.246 351.58L860.085 348.878L859.349 347.884L858.508 347.683L856.944 348.416L855.766 349.602L855.251 350.769L855.033 352.104L855.337 353.48L856.026 354.74L856.351 354.928L856.692 354.723L856.708 354.206L856.308 353.108L856.037 351.882L856.443 350.223L857.533 349.212L858.096 349.317L858.66 350.119L859.159 350.522L858.984 351.464L859.457 351.872L860.329 352.196L860.908 354.124L861.568 358.147L861.184 358.748L860.431 358.942L858.8 358.786L857.673 357.879L857.428 356.773L857.97 355.727L858.453 354.307L859.175 353.504L859.028 353.41L858.389 353.551L857.733 354.08L857.196 355.255L856.138 356.288L854.796 358.025L854.279 359.169L853.413 360.03L852.557 360.346L850.307 359.71L849.938 359.792L849.869 360.067L851.283 361.684L852.073 363.979L853.036 365.182L854.42 365.519L858.331 365.271L860.694 367.581L859.443 367.858L860.055 368.775L861.329 368.597L862.104 367.912L863.989 367.469L864.31 366.602L864.38 366.33L864.31 365.442L863.238 362.566L861.915 353.901L861.246 351.58Z" fill="#F8F9FA" stroke="#202E77" stroke-opacity="0.3" stroke-width="1.3"/>
<path d="M966.004 358.064L963.979 355.656L961.941 353.66L960.098 351.368L958.288 348.653L956.513 346.216L955.223 344.572L953.371 342.252L952.059 340.613L950.769 338.969L949.018 337.683L947.594 336.711L947.144 336.424L945.296 335.287L943.899 334.439L942.598 334.493L942.598 335.653L942.679 336.022L942.609 336.294L944.169 337.878L947.281 339.38L947.431 339.473L948.472 341.046L949.127 343.887L949.104 346.105L948.73 349.07L947.722 351.506L947.17 353.197L945.856 356.087L944.675 358.431L943.97 359.9L942.874 361.455L942.008 362.316L941.286 363.119L942.235 363.809L943.226 364.103L944.458 363.164L946.275 359.623L947.903 357.434L948.908 356.159L949.383 355.28L950.166 354.181L950.669 353.426L950.87 352.586L950.616 350.969L950.719 350.276L951.657 349.166L952.702 348.525L954.263 348.953L955.471 350.229L956.529 351.411L956.588 352.838L955.217 354.324L953.585 355.201L952.912 355.76L952.229 356.171L952.273 356.957L953.482 358.233L953.915 358.911L953.875 359.306L953.113 359.474L951.882 359.257L951.313 359.126L950.767 358.99L950.36 359.593L949.795 360.518L949.155 361.816L948.163 362.575L946.976 363.25L945.927 363.869L945.14 364.969L944.494 366.809L943.003 368.325L942.359 368.337L941.736 367.958L941.167 367.827L940.841 367.513L940.488 367.078L940.028 366.28L939.323 365.532L938.468 364.692L937.817 364.193L936.529 364.891L934.936 365.373L933.326 365.882L931.169 366.256L929.781 367.076L926.653 367.821L924.611 368.142L922.116 368.72L920.573 368.958L918.567 369.428L917.614 369.896L917.179 370.248L917.196 370.914L918.448 371.797L919.879 372.227L920.707 372.944L920.67 373.362L920.751 373.731L920.561 374.029L919.705 374.349L918.909 374.938L918.474 375.291L917.591 375.486L917.136 375.87L917.565 376.545L918.681 376.815L920.115 377.244L922.982 377.64L924.933 378.082L926.564 378.364L928.636 378.782L931.014 379.286L933.252 379.281L934.855 379.31L937.023 379.577L939.858 379.827L941.95 379.751L944.416 377.866L947.278 377.08L949.408 376.583L951.352 376.409L954.025 376.051L956.534 375.987L958.892 375.952L961.049 375.578L963.505 374.239L964.159 373.578L964.902 372.747L966.257 371.777L968.074 370.576L969.228 369.268L969.807 367.697L970.051 365.304L969.685 363.195L967.24 359.463L966.004 358.064Z" fill="#F8F9FA" stroke="#202E77" stroke-opacity="0.3" stroke-width="1.3"/>
<path d="M895.969 362.431L895.331 362.573L893.283 363.439L892.603 363.845L892.317 364.422L892.604 365.028L893.069 365.955L895.764 366.749L896.868 366.378L896.257 365.483L896.51 364.758L897.298 364.84L897.855 364.33L898.451 363.529L898.87 362.41L896.48 362.422L895.969 362.431Z" fill="#F8F9FA" stroke="#202E77" stroke-opacity="0.3" stroke-width="1.3"/>
<path d="M910.775 368.885L909.013 368.118L905.783 367.829L904.494 368.524L902.553 368.697L901.714 369.679L903.111 370.529L904.402 371.017L904.889 371.936L906.558 372.857L908.769 372.728L911.251 372.665L911.593 371.303L911.169 369.958L910.775 368.885Z" fill="#F8F9FA" stroke="#202E77" stroke-opacity="0.3" stroke-width="1.3"/>
<path d="M797.689 409.92L797.363 409.609L796.712 409.106L796.359 408.671L796.008 408.362L795.256 409.045L794.392 409.902L792.408 410.471L792.22 410.796L792.139 411.587L792.398 412.173L793.617 412.803L794.678 412.825L795.677 412.577L797.092 411.881L797.812 412.105L798.175 412.002L799.085 411.927L799.222 411.384L798.992 410.918L797.689 409.92Z" fill="#F8F9FA" stroke="#202E77" stroke-opacity="0.3" stroke-width="1.3"/>
<path d="M573.019 351.024L572.938 350.655L569.206 335.994L567.208 328.125L560.672 303.114L553.617 275.173L552.286 269.97L550.879 264.19L547.534 250.579L546.36 246.554L528.668 250.234L516.818 252.673L511.454 253.626L510.084 253.852L504.575 254.734L488.63 258.492L484.335 259.261L477.428 260.478L477.305 260.505L457.797 264.844L445.33 267.523L442.314 268.242L433.948 269.859L413.757 273.91L408.294 275.118L401.131 276.573L397.68 277.31L388.432 280.774L386.415 282.743L382.456 283.515L381.841 283.651L381.017 282.259L374.767 283.408L366.341 284.29L360.611 284.989L350.552 287.472L351.013 288.738L351.028 289.509L350.724 290.35L350.095 291.238L350.19 296.689L340.487 300.666L339.642 295.562L338.629 289.695L321.604 293.356L313.281 295.17L307.313 296.309L299.152 297.804L292.601 298.994L291.021 299.317L290.326 299.445L289.76 299.57L273.34 302.349L243.116 307.715L241.825 307.949L236.505 308.867L232.442 309.636L232.196 309.69L225.692 310.741L200.358 316.162L203.105 331.041L203.556 333.548L207.05 358.688L208.192 367.005L211.343 387.911L213.21 400.326L216.448 422.091L216.671 423.332L217.688 429.921L218.367 434.391L222.478 462.208L223.534 469.202L228.298 502.889L228.764 506.399L231.469 525.985L242.088 536.774L247.909 542.559L250.244 544.83L222.438 570.826L205.851 586.392L220.751 601.836L223.189 604.342L226.059 607.631L226.165 608.227L226.09 609.172L226.04 609.648L226.004 609.837L225.943 610.495L225.959 611.266L226.07 611.887L226.179 612.379L226.411 612.844L226.558 613.741L226.618 614.011L226.669 614.361L226.751 614.73L227.586 615.707L227.234 612.946L227.453 612.768L227.968 611.596L228.472 610.84L228.673 608.834L230.103 608.647L230.709 609.054L232.167 608.99L232.886 608.16L233.035 606.966L232.574 606.164L234.83 605.511L235.253 605.675L235.935 605.137L236.305 603.894L236.89 603.507L236.886 602.32L237.446 600.648L238.32 601.1L238.781 601.901L239.031 603.033L239.509 603.444L240.135 603.822L241.473 602.752L241.63 601.013L242.314 600.604L243.24 601.174L243.458 602.158L243.924 602.984L243.064 604.465L241.483 605.718L241.323 607.327L242.605 607.173L244.243 606.294L245.125 604.912L245.301 603.841L245.63 602.994L246.251 602.185L246.756 600.267L248.458 599.091L248.473 597.41L247.923 596.086L249.995 595.886L250.83 596.63L251.117 597.342L251.553 598.148L251.758 598.49L252.438 599.114L253.761 598.563L253.694 597.675L253.693 596.385L252.83 595.517L252.407 594.191L254.155 593.805L255.314 593.678L255.526 592.185L255.172 590.586L254.761 588.844L255.647 588.648L257.117 589.227L257.968 590.742L258.88 591.831L259.899 589.902L261.034 592L261.307 592.069L262.18 591.23L262.681 588.126L262.595 586.57L263.946 586.143L264.155 587.671L266.127 586.435L266.372 585.09L267.613 585.332L268.32 586.079L268.962 586.066L269.575 585.801L268.946 583.075L269.872 583.645L270.211 583.312L270.595 582.711L271.099 581.954L271.04 580.522L271.191 579.456L271.858 579.438L273.618 579.694L274.314 578.637L273.634 578.013L273.411 577.004L272.51 576.429L272.306 574.925L271.785 573.853L272.479 573.958L272.917 573.603L273.624 574.35L273.916 575.086L274.514 575.34L274.788 575.409L274.747 574.643L275.029 574.168L275.824 575.309L276 576.689L276.777 576.001L277.12 574.635L278.07 572.98L279.637 572.246L281.202 571.616L281.107 570.605L280.342 570.645L278.926 570.313L278.882 568.361L283.328 569.21L284.579 567.746L284.868 566.134L286.202 566.097L287.839 566.381L288.479 566.239L288.679 565.395L289.989 564.202L291.884 563.783L293.214 562.56L293.72 561.931L294.553 560.328L295.91 559.227L297.716 560.274L298.492 560.747L299.513 561.167L300.481 561.34L301.315 561.027L302.59 559.557L303.193 558.779L304.405 557.608L304.879 556.832L304.948 555.397L305.325 553.481L305.558 552.784L306.649 552.93L307.453 552.365L308.797 550.623L309.154 548.737L311.644 546.225L312.109 545.993L312.354 547.1L311.554 548.852L311.28 549.945L310.978 550.915L311.174 551.801L311.501 552.115L311.994 552.007L312.997 549.307L314.289 547.447L315.747 546.221L316.335 545.962L316.377 545.566L316.058 544.707L315.526 544.051L314.723 543.454L314.532 542.592L315.55 541.825L316.686 542.762L318.173 542.949L319.163 542.059L319.684 543.131L319.97 543.842L320.229 544.43L321.306 545.095L322.615 545.064L323.392 544.376L324.428 544.276L325.042 545.302L324.322 546.132L323.136 546.136L322.851 546.715L324.526 547.635L326.204 547.523L328.072 546.981L329.272 546.457L330.194 545.84L332.13 545.025L332.935 544.46L333.045 543.791L332.384 543.137L330.764 542.462L330.41 540.863L330.52 540.193L331.634 539.276L332.517 536.732L333.772 534.003L335.064 532.143L337.186 531.002L337.69 530.246L337.773 529.453L338.129 528.729L338.231 527.906L338.683 527.032L338.902 526.855L339.364 526.494L339.706 526.29L340.331 526.668L341.028 526.901L341.558 527.429L342.757 528.067L343.086 527.22L344.191 526.847L345.908 526.209L346.588 526.833L347.395 526.396L347.825 525.888L348.208 525.287L348.466 524.585L348.768 523.615L349.037 522.498L348.969 521.609L351.015 520.124L351.542 518.304L351.634 516.968L352.424 516.922L353.775 516.494L354.566 515.287L355.463 512.224L357.341 509.976L360.73 507.911L361.305 507.009L361.754 506.006L362.54 504.774L362.773 504.078L362.445 503.763L359.775 503.708L359.932 501.97L362.185 499.665L362.67 498.242L363.163 496.971L365.342 494.915L367.095 493.856L367.694 492.949L367.385 495.754L365.957 496.999L365.808 498.193L365.982 499.445L366.573 501.534L366.776 503.038L367.368 503.965L367.939 504.097L368.444 504.631L369.233 505.747L369.279 506.537L368.242 507.798L368.172 509.233L370.019 509.883L370.89 510.207L371.845 509.737L373.912 509.513L374.497 509.125L375.4 508.539L376.898 508.078L377.93 506.792L378.996 504.491L380.311 503.788L380.726 504.496L381.313 505.399L381.815 505.804L382.062 505.75L382.472 505.271L382.711 503.902L382.835 502.713L382.831 501.527L384.072 501.769L386.035 501.077L386.634 501.332L386.707 502.245L386.271 502.728L385.48 503.935L385.643 504.673L386.242 504.929L386.923 504.391L387.661 504.227L388.098 502.582L389.361 501.761L390.043 501.223L390.778 500.932L391.485 499.459L392.71 498.93L394.266 498.844L395.097 498.402L396.64 497.674L397.315 497.112L398.466 497.528L398.656 498.39L399.09 499.068L399.883 499.151L401.029 498.381L401.846 498.459L402.539 499.725L404.585 498.24L405.43 498.441L406.277 498.77L407.445 498.098L408.317 497.26L408.847 497.788L408.86 498.431L408.851 498.975L407.937 500.209L408.972 501.271L410.268 500.597L410.652 499.996L411.1 500.155L412.478 499.85L412.669 499.55L412.843 498.583L413.21 497.211L413.932 497.438L414.561 496.783L414.42 496.143L414.435 494.462L415.089 493.801L415.792 493.362L416.121 492.515L418.015 493.258L419.051 493.158L420.987 492.343L422.133 491.573L423.082 491.079L423.859 490.391L426.123 489.891L427.364 490.133L428.591 489.732L430.658 489.507L432.348 488.747L434 488.511L435.935 488.857L438.033 489.942L439.62 491.165L441.048 492.14L441.854 492.865L442.781 492.273L443.339 491.762L443.362 490.699L443.295 489.811L443.474 488.868L444.368 488.128L444.683 487.8L445.118 487.317L445.639 486.17L446.292 486.671L446.413 487.805L446.672 488.393L446.904 488.858L448.169 489.094L449.085 489.15L449.493 488.544L449.494 487.382L449.85 486.658L450.472 485.85L451.837 484.902L453.226 483.95L455.197 483.875L456.561 484.09L457.163 483.312L458.023 481.831L459.055 480.545L460.745 479.784L461.686 479.834L463.416 479.839L464.725 479.807L465.455 479.491L466.016 479.109L467.094 478.613L468.349 478.335L469.779 478.148L471.155 479.005L471.821 480.149L472.353 480.805L472.945 481.732L473.598 482.233L474.375 481.545L475.489 480.628L476.579 480.774L477.807 480.374L479.917 478.591L481.021 478.218L481.757 477.926L482.126 477.844L481.635 476.792L480.908 476.539L479.29 476.923L477.408 477.984L476.891 478.098L476.563 477.784L476.619 476.868L476.913 475.745L478.714 475.605L480.473 474.571L480.514 474.174L479.982 473.518L479.078 473.047L477.828 473.349L476.997 473.791L476.48 473.905L476.044 473.098L476.108 471.638L477.688 471.547L477.89 469.541L477.346 467.08L477.193 464.636L476.248 463.4L475.907 462.443L475.296 461.545L473.955 460.267L472.387 459.711L470.388 460.824L469.134 459.94L468.763 458.964L468.491 457.733L468.286 457.391L468.027 456.803L467.613 456.095L466.81 455.498L466.674 454.883L466.442 454.418L466.78 453.027L467.833 454.756L468.461 455.262L468.882 455.298L469.32 454.943L469.102 453.959L469.614 452.658L470.094 451.907L470.288 453.955L471.391 455.905L472.043 456.406L472.758 457.306L473.726 457.479L474.907 457.45L475.784 457.798L477.909 459.006L479.099 461.35L479.114 464.34L479.208 466.514L479.867 468.329L481.094 469.091L481.705 469.988L482.471 469.948L483.151 470.572L483.478 470.886L484.082 471.166L484.41 471.481L484.669 472.068L484.901 472.533L485.184 473.116L485.612 474.467L486.126 474.456L487.898 474.065L491.551 472.612L495.285 470.47L496.892 470.502L498.114 470.077L499.532 468.085L500.143 466.763L499.994 465.506L502.661 464.374L503.56 464.82L504.925 463.873L506.41 465.223L508.003 465.774L508.499 466.851L509.53 466.727L510.376 465.765L509.092 462.41L508.624 460.294L508.421 458.79L509.836 456.903L511.159 456.352L512.223 456.375L513.205 456.029L514.66 457.127L515.206 458.426L516.669 459.676L517.414 458.841L517.1 458.007L517.769 456.827L519.105 456.918L520.194 458.226L521.298 459.014L521.967 459.125L523.058 459.271L524.337 458.988L525.442 458.614L527.307 458.176L529.161 456.992L530.587 455.619L531.081 454.348L531.063 452.519L530.587 450.947L529.465 449.492L527.952 448.019L527.675 446.764L527.785 446.095L527.95 444.51L527.714 442.858L527.607 441.204L526.173 437.753L525.759 435.883L525.225 434.169L525.826 432.1L526.208 432.661L526.765 433.312L526.97 433.654L527.628 436.631L529.866 439.518L530.808 443.078L531.969 446.46L532.629 448.276L533.445 449.515L534.438 450.973L535.406 451.146L536.911 452.001L537.697 450.769L539.262 448.977L539.71 449.136L539.769 450.569L540.384 450.433L540.955 450.565L541.721 450.524L542.496 450.998L543.587 451.144L544.446 450.825L545.437 448.774L545.124 447.939L545.516 446.795L546.469 447.487L546.856 449.234L547.849 450.692L548.547 451.983L549.529 451.637L549.976 450.738L549.499 449.166L549.918 448.144L550.818 447.429L551.99 447.944L552.696 445.181L552.574 444.047L553.752 439.218L555.961 438.471L557.35 441.133L558.031 440.595L558.809 441.197L559.723 441.124L561.44 440.486L562.366 441.056L563.213 441.385L564.737 442.209L565.544 441.773L565.268 439.356L565.772 438.6L566.739 438.773L568.106 441.336L568.566 439.917L570.106 439.061L571.467 436.927L572.651 436.795L573.319 438.066L574.52 437.543L576.386 438.163L577.603 440.63L579.739 438.97L580.579 437.984L581.836 436.545L582.556 435.715L582.906 434.966L582.962 434.05L582.774 433.318L582.365 432.634L581.846 431.922L581.046 430.99L580.525 429.917L580.064 429.116L579.997 428.228L580.107 427.558L580.078 426.377L579.992 424.822L579.764 423.323L579.33 422.645L578.921 421.961L578.542 421.529L577.99 421.135L577.384 420.494L577.196 419.762L577.005 419.133L576.842 418.395L576.559 417.812L576.573 417.293L576.727 416.588L576.839 416.047L577.179 415.713L577.611 415.334L578.049 414.979L578.697 414.294L579.326 413.638L579.732 413.136L580.263 412.502L580.823 412.12L584.724 412.367L585.066 411.466L583.34 402.607L577.143 370.141L576.166 366.072L575.285 361.854L573.019 351.024Z" fill="#F8F9FA" stroke="#202E77" stroke-opacity="0.3" stroke-width="1.3"/>
<path d="M554.862 441.321L554.193 441.211L554.423 442.838L554.034 444.111L554.591 444.762L555.366 445.236L556.361 445.532L556.594 444.835L556.371 443.827L556.251 441.53L555.757 440.581L554.862 441.321Z" fill="#F8F9FA" stroke="#202E77" stroke-opacity="0.3" stroke-width="1.3"/>
</g>
<circle cx="534.914" cy="338.546" r="4.78904" fill="#B7BCD3"/>
<circle cx="735.678" cy="186.118" r="4.78904" fill="#B7BCD3"/>
<circle cx="632.713" cy="107.099" r="4.78904" fill="#B7BCD3"/>
<circle cx="673.421" cy="16.1076" r="4.78904" fill="#B7BCD3"/>
<circle cx="381.289" cy="445.924" r="4.78904" fill="#B7BCD3"/>
<rect x="392.876" y="-263.05" width="533.222" height="933.708" transform="rotate(27.2299 392.876 -263.05)" fill="url(#paint0_linear_128_678)"/>
</g>
</g>
<defs>
<linearGradient id="paint0_linear_128_678" x1="919.674" y1="241.26" x2="494.053" y2="260.076" gradientUnits="userSpaceOnUse">
<stop stop-color="#F8F9FA" stop-opacity="0"/>
<stop offset="1" stop-color="#F8F9FA"/>
</linearGradient>
</defs>
</svg>
