<svg width="390" height="347" viewBox="0 0 390 347" fill="none" xmlns="http://www.w3.org/2000/svg">
<g style="mix-blend-mode:darken">
<mask id="mask0_241_3259" style="mask-type:alpha" maskUnits="userSpaceOnUse" x="-181" y="0" width="603" height="347">
<rect width="603" height="346.023" transform="matrix(1 0 0 -1 -181 346.023)" fill="#D9D9D9"/>
</mask>
<g mask="url(#mask0_241_3259)">
<g style="mix-blend-mode:darken">
<path d="M384.772 144.224L383.612 140.928L382.406 137.072L381.627 134.385L380.943 132.058L380.539 131.688L380.464 130.997L379.175 131.221L378.787 132.32L378.333 132.42L377.725 131.48L377.375 130.941L376.153 132.857L375.415 134.111L374.883 134.553L374.611 133.675L375.079 131.618L375.573 130.647L375.687 130.468L376.118 129.988L376.247 129.175L375.785 128.202L375.215 127.081L375.53 126.074L375.935 125.753L376.324 125.422L376.786 125.704L377.346 125.734L377.605 126.139L378.24 127.552L379.02 129.546L379.263 129.954L379.775 129.765L379.846 129.041L379.316 127.76L378.448 125.706L377.515 124.066L375.883 121.413L374.356 118.26L372.562 114.95L370.484 112.088L369.444 110.302L367.291 107.456L364.557 104.124L362.006 101.288L359.704 98.8755L357.757 97.2308L355.963 95.9347L353.878 94.7806L351.385 93.872L348.621 93.1905L345.143 92.8363L340.933 92.6459L339.132 93.058L337.625 93.3295L336.368 93.7009L334.542 94.3496L333.571 94.9646L332.605 95.8851L332.316 96.658L332.314 97.3496L332.375 97.9674L332.805 98.1033L333.42 97.336L333.803 97.3271L333.971 97.6762L333.758 98.1077L334.059 98.4255L334.612 98.7633L335.147 99.0294L335.747 99.5898L336.316 100.002L337 100.942L338.039 102.021L339.564 103.145L340.558 102.985L341.856 102.453L342.943 101.044L342.909 100.189L342.253 100.428L341.32 101.494L340.536 101.914L339.804 102.152L339.431 101.85L338.816 101.295L338.913 100.965L339.007 100.699L339.325 100.398L339.818 99.4287L340.044 98.3629L340.556 97.5428L341.478 96.7075L342.308 96.2174L343.361 96.0462L344.316 96.0502L345.525 96.1673L346.282 96.3843L347.496 96.8686L348.665 97.1478L349.884 97.6492L351.107 98.4541L352.274 99.4269L353.283 101.064L354.175 102.251L354.753 103.676L355.346 105.252L355.816 106.61L356.184 107.851L356.492 109.183L356.826 110.969L357.185 112.521L357.534 113.688L357.802 114.475L358.388 116.361L358.622 117.078L359.094 118.374L359.405 119.781L359.683 120.966L360.039 121.81L360.476 122.328L361.027 122.666L361.685 122.445L361.7 121.811L361.442 121.408L360.914 120.831L360.367 119.476L360.785 118.922L360.538 117.808L360.325 116.917L359.782 115.575L359.897 115.396L360.705 114.11L361.424 113.475L362.133 113.472L362.619 113.518L362.991 113.744L363.202 114.004L363.421 114.571L363.762 114.727L364.128 115.262L364.532 115.632L365.1 116.046L365.352 116.144L365.954 116.011L366.9 115.632L367.444 114.958L368.319 115.303L367.615 116.012L367.85 116.729L368.072 117.311L367.356 117.623L366.787 117.211L366.278 117.415L365.841 117.589L365.653 117.784L365.559 118.052L365.834 118.529L366.265 118.74L366.767 118.86L367.276 118.656L367.715 118.481L368.219 118.679L368.609 118.977L368.091 120.107L367.936 120.526L368.137 121.019L368.214 121.709L368.357 122.293L368.806 123.209L369.301 124.328L370.211 126.22L370.583 128.536L371.195 130.185L371.668 132.187L371.23 133.053L370.453 134.487L369.951 135.69L368.348 136.998L367.196 138.113L363.54 140.429L362.018 141.335L360.687 142.412L359.958 142.667L359.478 142.926L359.099 143.717L358.507 143.541L357.856 143.454L356.764 143.865L356.021 145.443L355.614 144.995L354.771 144.797L352.248 146.462L351.309 146.531L348.067 148.91L346.47 150.524L346.097 151.62L346.519 152.067L346.091 152.637L345.319 153.039L345.07 153.648L344.487 154.561L344.519 155.4L343.994 155.53L343.641 154.979L343.247 155.005L342.605 155.3L341.43 156.036L340.448 156.191L339.412 156.514L337.974 156.754L335.47 157.184L333.899 157.241L333.037 156.891L332.445 156.023L332.908 155.675L333.775 155.637L334.797 155.32L335.638 154.811L336.553 154.362L337.675 154.42L338.405 154.874L339.101 154.475L339.677 154.579L340.05 154.112L340.455 153.853L341.283 153.977L341.921 153.667L341.556 153.132L340.355 152.707L339.205 152.515L336.976 152.792L332.614 153.725L328.656 154.323L322.59 154.019L316.109 152.945L314.322 152.034L313.433 151.553L311.225 150.195L308.79 149.196L306.533 147.62L305.616 146.038L305.387 144.382L306.025 141.979L306.123 140.404L306.347 139.263L305.335 137.949L304.984 136.089L304.618 134.154L303.911 133.526L302.863 132.758L302.338 132.183L301.697 131.094L301.499 130.2L302.383 129.604L302.132 128.2L301.238 128.397L300.143 128.1L298.928 127.616L298.164 127.016L296.875 126.608L295.544 126.287L294.929 126.363L294.491 126.535L293.879 126.902L293.445 127.782L292.894 128.149L291.78 128.395L291.353 128.275L291.087 128.18L290.466 127.533L289.924 126.884L288.82 125.513L288.137 124.573L287.383 123.74L286.781 123.181L286.44 123.026L286.248 123.544L286.88 124.251L287.619 125.087L288.179 125.808L288.165 126.442L288.115 126.915L287.976 127.331L287.288 127.421L286.112 126.759L285.171 126.121L284.38 125.049L283.497 124.322L282.44 123.787L280.62 123.128L280.153 122.062L279.269 121.335L278.512 121.118L278.247 120.331L279.614 119.074L280.377 118.276L280.838 118.559L281.58 119.408L282.116 119.674L282.44 119.68L282.641 119.544L283.24 118.703L283.273 118.158L282.949 117.461L281.764 117.107L282.021 116.19L282.186 115.538L282.248 115.124L282.264 114.505L282.263 113.799L282.556 113.041L283.576 112.646L283.285 112.097L282.724 112.066L281.863 111.718L281.467 111.728L281.157 111.721L280.826 111.332L280.875 110.859L281.141 110.325L282.478 109.629L282.984 110.455L283.495 110.957L283.844 111.42L284.728 112.146L285.502 113.144L287.09 114.562L288.517 115.937L289.032 117.146L288.747 117.67L288.06 118.454L287.662 119.095L287.474 119.29L287.393 119.615L287.405 120.012L287.665 120.493L288.135 120.466L288.783 119.847L288.951 118.872L289.583 118.179L290.376 117.525L291.432 117.985L291.986 117.709L291.961 117.253L290.448 116.11L289.742 115.497L287.796 113.852L285.27 111.473L284.376 110.286L283.722 109.2L283.427 108.559L283.282 107.975L283.385 107.399L283.865 107.062L284.053 106.867L283.645 105.095L282.776 104.365L278.919 101.665L277.006 99.5505L274.933 96.9936L273.538 95.7646L273.292 95.3432L272.975 95.0287L272.683 95.0934L272.411 95.3228L273.399 96.8728L273.612 97.7638L272.596 97.835L272.078 96.9499L271.705 96.0324L271.385 95.6254L270.488 95.5329L269.804 95.9907L269.231 95.9023L269.798 94.9148L270.412 94.8406L271.397 94.7005L271.53 94.1951L270.718 92.0507L270.42 91.1188L270.401 90.3383L270.394 89.9555L270.456 89.5416L270.197 89.1367L270.018 89.0229L269.501 89.5376L269.06 89.635L268.957 88.889L269.216 87.9695L267.794 87.5928L265.351 86.2091L263.599 84.7522L262.778 82.9185L261.965 82.0984L261.486 82.4354L261.66 83.5659L261.232 84.0609L260.809 84.3078L260.361 84.7136L260.276 85.6563L259.7 85.9669L259.088 84.3178L258.178 82.4278L256.579 82.0127L254.544 81.7097L254.146 81.7201L252.193 81.7836L250.681 81.3491L250.34 81.269L248.458 79.9167L247.051 78.2901L246.127 76.957L246.004 76.1237L244.878 76.3868L242.884 77.2437L241.505 78.1023L241.618 78.615L242.341 78.6862L243.08 78.8296L244.126 78.2001L245.285 78.1587L245.965 79.0082L246.714 80.2407L246.985 81.0431L246.982 81.7347L247.821 81.627L248.231 81.6736L248.977 82.2017L249.796 82.636L250.173 83.6442L250.171 84.2599L249.737 84.4476L249.346 84.8426L248.999 85.011L248.517 84.6415L248.05 84.683L247.807 84.9679L248.325 85.8531L247.921 86.1873L247.367 86.4652L246.77 86.6111L246.201 86.1992L246.191 84.4787L245.792 84.4136L244.608 84.7671L243.33 86.7721L243.12 87.91L243.606 88.649L243.874 88.7431L243.859 89.3777L243.527 89.6819L243.025 90.1933L242.773 90.1713L242.116 89.7013L241.588 89.1268L241.262 88.4144L241.633 87.239L241.138 86.8107L240.247 87.7148L239.558 88.4984L239.078 88.8354L239.009 89.5577L239.527 90.4429L239.878 90.9191L239.447 91.4763L239.016 91.263L238.578 90.7443L238.368 90.5597L237.646 90.4904L237.475 90.0663L237.315 89.4085L237.539 88.9607L237.514 88.5043L238.084 88.3005L238.456 87.82L238.803 86.9586L238.91 86.3972L239.36 85.5886L239.263 85.15L239.182 84.1523L238.459 84.0811L237.262 85.0688L236.691 85.9637L236.108 86.1841L234.44 86.4932L233.385 86.0336L232.695 85.4174L231.477 84.9179L230.495 84.3663L230.162 83.9779L230.159 83.2715L231.206 82.7175L231.62 82.0863L231.928 81.3889L232.485 80.712L232.371 80.1974L231.157 80.4062L229.9 81.4687L229.398 82.0556L228.676 81.9844L228.173 81.8645L227.96 82.296L228.011 84.545L227.046 84.143L226.435 82.4958L226.259 81.7658L227.141 79.7706L225.913 79.5799L225.744 79.1573L225.647 78.7168L226.513 78.0493L227.261 77.8839L227.455 77.3631L228.028 76.7603L228.93 76.2523L228.611 75.1537L228.019 74.978L226.118 74.2452L225.445 73.7785L224.181 75.0876L223.549 75.0741L223.685 73.9526L224.085 73.3266L223.686 71.937L223.909 71.4874L226.793 72.0806L228.949 73.2031L229.451 73.323L229.655 73.2022L229.917 72.989L230.213 72.5253L230.669 72.5001L231.174 71.9284L231.187 71.2942L230.782 70.9217L230.254 71.0384L229.807 70.753L229.183 69.8154L228.656 69.2391L228.037 68.5913L228.095 67.8097L228.695 67.677L229.374 67.8952L229.562 69.0228L229.921 69.252L230.53 69.5017L231.162 69.5153L232.02 69.0807L232.387 68.9997L232.791 69.3703L232.681 70.257L232.778 70.6956L233.076 70.9383L233.524 71.2237L235.715 72.5076L235.942 72.0732L234.732 70.6341L233.918 69.1053L232.37 67.5258L232.115 66.7974L232.513 66.094L231.904 65.8442L231.369 65.5781L230.379 65.4128L230.022 65.185L229.812 64.3074L229.281 63.7177L229.022 62.5443L229.531 61.0178L230.121 59.796L230.908 58.0685L231.611 56.7281L232.002 56.3349L232.317 56.0185L233.143 56.1444L233.681 57.1169L234.065 58.432L235.03 60.2937L235.736 60.2154L236.44 59.5817L237.991 59.7785L238.956 59.5492L239.225 58.9522L238.607 58.3181L238.125 57.9487L236.861 57.9353L236.285 57.8337L235.815 57.8599L235.377 57.3413L234.792 56.8553L234.497 55.5205L234.484 54.8323L234.514 53.5791L235.032 52.3731L236.111 51.9653L237.497 52.1826L238.56 52.332L238.934 51.8648L239.068 51.4349L239.37 51.0596L239.781 49.0926L240.445 48.5475L241.022 47.9579L241.637 47.1906L241.977 46.6395L242.732 46.1638L244.112 45.9983L244.637 45.1752L244.475 43.1179L243.711 43.2112L242.697 45.3112L242.331 45.3922L242.429 43.8172L242.467 41.5484L241.615 41.5973L240.291 41.661L240.051 42.7278L239.687 43.5152L239.387 44.5973L239.192 45.1025L238.246 45.4809L237.894 43.6209L237.194 42.6066L237.626 42.1268L239.011 40.2512L238.902 39.415L238.326 39.3114L237.242 40.7339L236.803 40.2157L236.194 39.9678L235.569 39.644L234.669 39.5345L233.34 39.2286L232.09 39.2741L232.09 38.583L232.43 38.0299L234.578 38.0788L235.566 37.6133L236.22 38.4087L237.263 38.4689L238.196 37.4023L239.268 37.241L239.883 37.1668L240.482 36.3274L242.542 35.7025L243.896 35.0805L245.86 33.3858L247.505 32.6217L248.241 32.0587L249.021 32.7326L249.332 32.7416L249.831 32.1533L250.757 30.7038L251.185 30.1313L251.92 29.5684L253.041 28.998L253.796 29.2154L254.469 29.6821L254.719 29.78L255.351 29.0868L255.694 28.5508L256.455 28.4442L256.974 27.9451L257.467 27.667L257.851 26.9665L258.117 26.4298L258.36 26.0694L258.756 25.4283L258.672 23.0311L259.255 22.1195L259.572 21.7408L260.609 21.4956L261.509 21.6052L261.518 21.9876L261.675 22.3533L261.651 22.5895L261.568 22.9146L261.837 23.0862L262.047 23.2707L262.095 23.4891L262.001 23.7568L261.652 23.9874L261.473 24.5647L261.444 25.1268L261.36 25.4519L261.547 25.8727L261.978 26.0841L262.603 25.7148L263.024 24.7615L262.876 24.1629L262.941 23.7642L263.547 23.3075L263.735 23.1127L264.019 22.5878L264.211 22.0694L264.431 21.3276L264.681 20.7187L264.606 20.0283L264.234 19.1108L264.536 18.7374L264.907 18.255L265.423 17.7407L265.426 17.1246L265.475 16.6518L265.919 16.1554L266.414 15.8906L267.068 15.6542L267.363 15.5891L267.726 15.4311L268.057 15.1887L268.043 14.4231L267.995 14.2047L267.691 13.9473L267.577 13.4346L267.554 12.9778L267.312 12.647L266.833 12.2928L266.839 11.9669L266.505 11.503L265.621 11.4674L264.533 11.4928L264.015 11.3008L263.61 10.9283L263.221 10.6298L263.04 9.8096L262.925 7.97302L262.607 7.58309L262.195 7.51895L261.7 7.09071L261.431 6.91914L261.066 7.07756L260.297 8.18554L259.843 8.22403L259.543 7.98374L258.885 8.89796L258.124 9.69567L257.929 10.9076L256.967 12.5363L256.481 13.1198L256.407 13.8293L256.662 14.6332L256.946 14.8013L257.165 14.7531L257.442 14.614L257.847 14.9864L257.903 15.5895L258.277 15.8135L258.551 16.2928L258.414 17.4143L258.345 18.1366L258.261 18.4617L257.938 18.4576L257.58 18.228L257.345 18.28L257.088 18.5061L256.868 18.5548L256.364 18.4372L255.731 18.4217L255.44 18.5638L255.203 18.5384L255.016 18.0421L255.123 17.4808L256.079 16.8691L256.413 16.6419L256.539 16.4448L256.461 15.4623L255.674 15.0986L255.023 15.0115L254.081 15.0644L253.523 14.9727L253.057 14.6774L252.663 14.7029L252.144 14.5089L251.777 14.59L251.761 15.2089L251.943 16.0311L251.997 16.5568L251.919 16.8967L251.366 17.25L250.857 17.4541L250.491 17.5351L250.506 18.3003L250.591 18.6819L250.582 18.9926L250.322 19.2035L249.639 18.9701L249.422 18.4027L249.413 18.0203L249.273 17.7286L249.024 17.7218L248.642 17.7288L248.35 17.8709L247.806 19.236L247.498 19.304L247.109 18.93L246.996 18.4929L246.857 18.2149L246.63 17.8808L246.111 17.6888L246.063 17.4685L246.125 17.0546L245.906 16.4876L245.542 15.877L245.047 15.4487L244.891 15.1586L244.94 14.6876L245.011 13.9649L245.845 13.1493L246.689 13.347L247.493 13.7847L248.127 13.7978L248.629 13.9177L249.206 14.0213L249.741 14.2874L250.551 14.4011L250.706 14.0581L249.701 13.1271L249.4 12.8094L249.011 12.5109L248.423 12.0098L247.477 11.697L246.46 11.6908L245.591 11.652L245.034 11.6357L244.384 11.5505L243.791 11.3729L242.94 11.4854L242.349 11.9387L241.779 12.218L241.531 12.2111L241.352 12.0973L241.398 11.6093L241.611 11.1777L241.651 11.0156L241.892 10.6396L240.983 10.1495L240.206 10.182L239.532 10.331L239.474 10.4214L239.03 10.9179L238.492 11.2678L238.022 11.296L237.666 11.1438L237.61 10.5407L237.928 10.2394L238.24 9.84788L238.184 9.24482L238.052 8.72031L237.702 8.18234L237.641 7.96499L237.592 7.74473L237.336 6.9409L237.736 6.3149L237.644 5.55043L237.256 4.55891L236.929 3.84838L236.807 3.64454L236.955 3.61179L237.376 3.36334L238.092 3.74485L239.161 4.96823L239.627 5.95858L240.226 7.21018L241.3 8.44834L241.389 8.50645L242.168 9.10292L242.444 9.6573L242.784 9.73548L243.199 9.87474L243.727 9.75803L243.967 9.45794L244.034 9.05872L243.985 8.83848L243.847 8.56244L243.578 7.75965L242.295 6.27467L241.279 4.94605L240.391 3.43558L239.035 1.3357L237.84 -0.797948L236.888 -2.52537L236.532 -3.37068L236.222 -4.00905L235.897 -4.78368L235.548 -5.95105L235.318 -6.91603L234.93 -7.90565L234.052 -7.63578L234.388 -5.14109L234.573 -4.71992L234.106 -4.67844L233.399 -4.6775L233.108 -4.53547L232.483 -4.22798L231.363 -4.28695L230.356 -4.52639L229.52 -5.11025L228.821 -5.41768L226.786 -5.72064L225.779 -5.96007L225.284 -6.38833L224.83 -6.98108L224.966 -7.4114L225.624 -7.63258L226.599 -7.54127L228.028 -6.77982L228.221 -6.66927L229.26 -6.91494L230.434 -7.65042L231.139 -8.35999L232.196 -8.51603L232.721 -8.6479L233.371 -8.56073L233.903 -9.0029L234.417 -9.11665L233.977 -10.3417L233.326 -12.5199L232.877 -14.1274L232.634 -15.1649L231.993 -16.947L231.757 -16.9087L230.743 -16.2085L229.907 -15.3925L229.056 -14.6505L228.65 -14.33L228.271 -14.3078L226.995 -14.7188L225.495 -15.3869L224.139 -16.1624L223.367 -16.4539L222.523 -16.6516L221.548 -16.8203L220.447 -16.792L219.484 -16.5631L218.476 -16.1114L217.609 -15.4416L216.054 -13.9904L214.754 -12.8428L214.294 -12.4185L213.614 -11.9436L212.48 -11.3703L210.612 -10.6345L209.42 -9.97074L207.482 -9.1439L206.818 -8.67241L206.374 -8.17596L205.772 -7.34979L205.292 -6.38348L204.702 0.683537L196.069 0.100762L192.373 3.21014L190.566 6.65481L193.156 15.1714L192.271 15.0585L190.667 14.9669L189.22 14.8268L188.116 14.8399L187.299 15.0365L186.421 15.3063L185.537 15.9021L185.45 15.9988L184.905 16.5953L184.552 17.1495L184.212 17.7026L183.577 19.0737L183.085 20.6742L182.444 22.3693L181.192 24.7671L170.529 27.0488L141.076 32.8835L112.534 38.1785L108.375 38.9148L104.815 39.5783L82.9047 43.5602L61.8972 47.3904L53.9554 48.8236L40.8833 51.19L22.3424 54.6281L-5.97612 59.752L-13.7 61.1968L-16.4174 61.706L-27.6453 63.7881L-34.1304 64.9929L-50.7995 67.9235L-57.2571 69.0446L-57.9499 80.1014L-58.4768 88.2915L-58.8795 94.7474L-59.7036 108.48L-59.7965 109.729L-60.483 121.37L-60.9783 129.077L-61.6304 138.649L-62.3539 149.358L-63.6813 169.23L-64.2206 182.79L-62.7192 186.242L-61.7558 188.443L-60.7735 188.226L-45.6517 185.114L-41.7726 184.503L-41.6227 184.486L-39.1986 184.041L-36.0252 183.509L-35.2565 183.369L-17.2319 180.308L-7.4318 178.725L-7.0944 178.65L-6.68054 178.574L-5.7359 178.395L-1.82596 177.716L3.05804 176.852L6.6065 176.206L11.5721 175.154L21.7148 173.033L22.3076 176.549L22.7962 179.593L28.6021 177.264L28.5596 174.011L28.9381 173.497L29.131 172.979L29.1217 172.519L28.8506 171.78L34.8509 170.33L38.2683 169.927L43.284 169.449L47.0146 168.794L47.4911 169.627L47.8721 169.542L50.2375 169.111L51.4542 167.936L56.9716 165.901L59.0339 165.491L63.3054 164.638L65.2178 164.246L66.5668 163.947L78.6175 161.621L83.5944 160.69L85.395 160.278L92.8515 158.737L104.492 156.225L104.568 156.223L108.671 155.516L111.237 155.087L120.752 152.907L124.039 152.396L124.857 152.276L128.056 151.722L135.127 150.313L145.689 148.208L146.373 150.61L161.997 146.495L175.137 142.974L177.809 142.26L182.429 141.039L191.044 138.75L196.721 137.371L197.888 142.927L199.337 149.834L201.169 158.179L206.238 155.86L206.561 156.557L206.511 157.03L206.497 157.663L206.75 158.453L207.4 159.863L207.741 160.711L208.222 161.772L208.439 162.339L208.498 162.958L208.424 163.665L208.304 164.861L208.297 165.171L208.434 165.447L208.591 165.735L208.818 166.069L208.899 166.438L208.776 166.925L208.64 167.355L208.404 168.023L208.517 168.536L208.578 169.154L208.973 169.835L209.339 170.37L209.682 171.923L209.941 172.328L210.224 172.572L210.706 172.943L211.185 173.299L211.46 173.776L211.703 174.184L212.036 174.571L212.247 174.833L213.335 175.16L217.999 176.574L221.147 177.525L226.626 182.48L226.571 181.954L227.067 181.691L227.957 182.801L228.339 183.409L228.754 183.547L229.363 183.105L229.344 182.325L229.671 181.715L229.89 181.589L230.231 182.437L230.749 183.322L231.131 183.238L232.08 182.244L233.483 181.149L233.81 179.431L233.998 178.543L234.857 177.491L235.848 176.334L235.887 175.465L235.747 173.789L235.835 172.448L236.312 171.48L236.716 170.452L236.733 169.204L236.351 167.827L235.635 166.816L235.464 166.392L235.609 165.653L235.902 164.897L235.804 163.749L236.07 162.522L236.559 163.967L236.802 165.698L237.249 165.906L237.857 166.848L238.191 166.619L238.476 166.096L238.573 166.535L238.955 167.85L239.036 168.91L237.805 171.765L236.678 173.414L236.744 175.029L236.894 175.705L236.989 176.837L236.788 177.666L235.815 180.294L234.221 183.308L233.12 184.72L232.271 186.169L231.533 187.423L231.509 187.659L232.019 188.162L234.551 188.202L234.589 188.655L240.228 188.838L240.652 189.991L240.636 192.008L240.824 192.507L241.066 192.837L241.231 193.583L241.108 194.073L240.956 194.429L240.817 194.844L240.752 195.243L240.791 195.774L240.836 196.318L240.907 196.993L241.144 197.648L241.406 198.129L241.931 198.704L242.799 199.359L246.848 211.474L247.735 214.307L247.987 215.098L248.483 214.835L249.17 214.052L249.665 213.789L250.184 213.983L250.751 213.764L250.931 213.109L250.424 212.283L250.028 211.601L249.931 211.161L249.851 210.872L249.232 210.224L247.584 208.898L246.602 207.653L246.642 206.86L247.494 206.749L248.752 207.777L249.499 208.305L250.068 208.026L250.968 209.518L251.852 209.629L253.157 209.402L253.456 208.322L253.025 207.493L252.909 206.274L252.717 205.47L252.216 204.659L251.189 203.64L250.703 202.901L250.363 202.054L250.238 199.821L250.125 197.986L250.125 197.293L250.332 196.771L250.78 197.057L251.213 197.899L251.323 199.028L251.342 200.499L251.271 201.224L251.391 202.119L251.613 202.699L252.352 203.536L253.317 203.938L253.926 204.188L254.671 205.407L254.825 205.682L255.823 208.321L256.409 209.513L256.507 209.954L256.247 210.165L255.454 210.203L255.234 210.251L254.965 210.771L254.158 210.734L253.28 211.006L252.616 211.553L252.147 212.286L253.012 212.234L254.967 212.17L255.998 212.174L257.134 213L257.623 214.445L258.076 215.036L258.419 215.191L258.789 214.709L258.741 213.798L258.556 213.376L258.53 212.906L258.498 212.067L259.897 210.957L260.273 209.874L261.805 209.29L263.686 209.243L264.089 208.985L264.082 208.602L263.879 208.031L263.91 207.471L263.91 206.78L264.033 206.29L263.649 205.668L263.286 205.133L262.693 204.958L262.6 203.501L263.924 204.132L264.413 203.484L264.947 203.75L265.005 204.353L265.459 204.946L266.14 205.179L266.456 205.494L266.741 205.738L267.023 206.599L267.295 207.477L267.635 207.555L267.924 206.784L267.665 206.302L267.6 206.01L267.609 205.701L267.298 205.061L267.6 204.687L267.593 204.304L267.729 203.181L268.261 202.741L269.116 202.707L269.53 202.769L269.716 202.574L269.194 201.674L268.692 200.863L268.076 200.229L267.695 199.622L267.692 198.915L265.68 196.976L265.211 196.312L264.634 196.208L264.139 196.471L263.676 196.189L263.255 195.051L263.543 194.896L263.602 194.114L264.03 193.619L265.108 194.534L266.183 195.772L267.108 196.338L267.423 196.022L267.294 194.744L267.56 193.516L266.885 191.572L267.151 190.344L267.961 190.458L269.189 192.048L269.876 193.281L271.047 192.866L270.235 190.724L268.146 188.863L266.799 187.086L266.256 185.806L266.091 184.367L265.952 182.767L266.635 180.909L267.186 182.647L267.519 183.727L267.989 184.393L268.688 185.406L268.914 186.356L270.021 187.742L271.245 187.224L272.444 186.945L273.387 187.659L273.769 188.974L274.555 189.954L275.019 190.943L275.766 192.161L276.409 193.266L277.007 193.749L277.244 193.773L277.289 191.887L277.137 190.92L276.787 189.753L276.309 188.706L275.81 187.569L274.157 187.182L273.798 186.323L274.576 185.598L275.372 185.651L276.215 185.849L276.614 185.916L277.513 186.008L278.129 185.949L278.663 185.509L279.036 185.117L279.071 184.572L279.783 184.245L280.147 184.78L280.95 185.218L281.777 184.713L282.045 184.116L281.884 183.458L280.643 182.502L279.538 182.515L277.679 181.62L278.279 180.78L278.677 180.152L280.25 180.097L281.394 180.613L282.634 180.17L283.561 180.12L284.282 180.805L284.808 181.382L285.151 181.537L285.757 181.078L285.579 180.273L286.114 179.217L285.537 177.022L284.708 175.497L285.334 175.13L286.581 175.76L286.97 175.367L286.247 174.603L285.864 173.981L285.337 173.406L284.622 171.702L283.455 170.038L283.735 169.501L285.48 170.575L286.203 170.646L287.339 171.472L287.55 171.732L286.627 171.799L286.619 172.107L287.398 172.781L288.138 172.924L288.955 173.359L289.703 173.887L290.186 173.917L290.172 173.152L289.637 172.193L289.772 171.765L289.513 171.36L288.505 171.045L288.012 169.923L288.92 169.784L289.513 169.269L289.325 168.832L288.739 168.346L288.134 168.112L287.32 167.276L286.588 166.824L285.763 166.007L285.827 165.607L287.239 166.219L287.814 166.384L287.968 165.964L287.563 165.593L286.824 164.757L287.227 164.499L288.008 163.788L288.468 163.362L288.623 163.021L288.869 162.736L289.222 162.873L289.151 163.597L289.161 164.686L289.403 165.017L290.306 165.202L291.488 165.54L292.347 165.119L293.027 164.646L293.426 164.711L293.743 165.026L294.164 165.472L294.537 165.774L294.911 165.998L295.854 166.02L296.055 166.514L295.531 167.339L295.044 168.613L294.672 169.789L294.403 170.309L295.086 170.542L295.595 169.647L296.114 168.516L296.875 167.026L297.004 166.212L296.914 165.464L296.441 164.783L295.712 163.638L295.567 163.055L296.231 162.508L297.115 162.543L297.941 162.038L297.996 161.932L298.605 161.491L299.068 161.08L299.415 160.912L299.625 161.096L299.767 161.387L299.191 162.684L299.101 163.319L298.43 164.175L298.171 165.094L298.78 165.344L299.32 165.284L300.05 164.34L300.159 165.176L301.043 167.303L300.159 167.899L298.231 169.124L297.078 170.932L297.204 171.844L297.47 172.014L298.752 171.408L299.164 170.764L299.384 170.024L300.064 169.551L300.923 169.821L301.596 171.056L302.286 171.672L301.906 172.388L301.152 172.877L299.377 173.054L298.516 173.476L298.25 174.01L298.836 174.496L299.711 174.841L300.553 174.409L301.35 174.464L302.049 174.77L301.942 175.333L299.671 177.096L299.81 178.003L300.354 178.652L301.298 180.074L301.281 180.693L301.183 182.266L301.031 182.686L300.985 183.172L301.72 183.932L301.844 185.535L302.021 186.265L302.559 187.238L302.996 187.756L303.306 188.456L302.344 190.085L302.376 191.554L302.369 193.262L302.249 194.458L301.689 195.119L299.872 196.784L299.379 197.753L299.901 198.653L300.328 198.774L300.662 197.853L301.463 197.585L302.121 198.055L302.965 198.252L303.752 198.616L304.075 197.915L304.659 196.386L306.126 194.186L308.119 192.56L309.252 192.678L310.292 192.373L311.118 191.867L310.801 190.153L310.661 189.168L310.849 188.28L311.05 188.144L311.653 188.718L311.781 189.92L312.158 190.929L312.384 191.187L312.912 191.07L314.937 190.284L316.112 189.546L317.489 189.381L317.441 189.161L317.149 187.903L317.043 185.067L317.438 184.348L318.047 184.598L319.16 187.058L319.41 187.772L318.771 188.775L319.073 189.093L319.876 188.762L320.242 188.681L320.53 188.524L321.732 188.258L322.381 187.716L322.714 187.412L323.623 186.579L324.22 185.74L325.085 184.364L325.71 182.597L324.767 181.252L325.973 180.663L326.873 178.048L327.188 177.04L327.352 176.389L327.026 174.985L327.853 173.787L328.914 172.536L329.132 171.781L329.528 171.14L330.38 171.029L330.965 171.515L331.183 172.158L331.37 172.579L331.503 173.181L331.784 173.348L332.231 174.249L332.134 174.579L331.787 175.44L331.94 175.791L333.238 175.257L334.696 173.996L335.36 172.127L335.755 170.717L337.223 169.917L338.839 169.774L340.728 170.741L340.912 170.531L341.922 170.154L343.15 168.62L344.698 168.109L345.381 168.342L345.819 168.231L345.851 167.684L345.324 167.11L345.874 166.05L347.235 165.811L349.262 166.347L349.533 167.225L348.796 167.788L347.966 168.278L347.846 168.783L347.319 168.899L346.758 168.868L346.832 170.176L347.272 171.401L347.72 171.686L348.085 171.528L348.814 170.582L348.698 169.439L350.577 167.287L353.236 165.129L354.104 164.462L354.581 163.418L355.053 163.467L355.675 163.083L356.786 162.746L358.636 161.861L361.114 161.665L363.067 160.204L365.363 158.896L367.252 157.848L369 157.199L370.074 157.117L371.307 156.291L373.332 155.505L375.178 154.604L376.532 153.981L377.985 154.428L378.984 155.054L379.488 155.173L380.003 155.352L380.208 154.538L379.55 154.068L380.344 154.108L381.114 153.629L382.15 152.677L382.501 153.153L381.95 154.906L382.883 155.161L383.605 152.51L383.713 150.917L382.676 149.147L382.318 147.597L382.065 146.868L381.151 146.624L380.688 147.033L380.186 147.622L379.512 147.771L379.169 147.616L378.491 147.395L378.343 146.799L378.764 145.844L378.538 145.587L377.881 145.824L377.579 146.199L376.746 147.013L376.413 146.626L376.057 145.781L376.193 144.659L376.339 143.227L377.133 142.576L378.405 142.278L378.561 141.937L378.105 140.638L378.244 140.223L377.91 139.759L378.671 138.959L378.345 138.247L377.298 137.479L376.95 137.018L377.266 136.639L378.076 136.753L378.944 137.408L379.229 136.96L379.502 136.115L380.055 135.762L380.833 137.052L381.419 138.244L381.8 138.851L382.011 139.113L382.831 141.639L383.606 143.958L384.386 145.955L384.61 146.905L384.387 147.355L384.516 147.864L384.515 148.555L384.768 149.977L385.005 151.4L384.461 152.767L384.081 155.573L384.702 156.219L385.477 154.096L385.843 152.615L385.931 149.951L385.513 147.09L384.772 144.224Z" fill="#F8F9FA" stroke="#202E77" stroke-opacity="0.3" stroke-width="0.8"/>
<path d="M247.469 14.7276L247.039 14.5918L246.584 14.6166L246.328 14.9181L246.439 15.3557L246.668 15.6894L246.951 15.858L247.485 16.1241L248.032 16.1566L248.564 15.7163L248.557 15.3335L248.224 14.945L247.469 14.7276Z" fill="#F8F9FA" stroke="#202E77" stroke-opacity="0.3" stroke-width="0.8"/>
<path d="M235.028 76.7044L234.503 77.5274L234.228 78.3729L234.228 79.066L234.432 79.5745L234.733 79.8923L235.147 79.9541L235.786 79.6437L236.096 78.9596L236.191 78.6918L236.013 77.8868L236.152 77.4716L236.343 76.9513L236.353 76.6425L236.198 76.2924L235.712 76.2466L235.028 76.7044Z" fill="#F8F9FA" stroke="#202E77" stroke-opacity="0.3" stroke-width="0.8"/>
<path d="M240.656 80.2437L240.88 79.8695L241.019 79.4544L240.938 79.0879L240.459 78.7337L240.151 78.7243L240.006 78.834L239.908 79.0866L239.82 79.7353L239.387 80.2155L238.814 80.8202L238.528 81.2677L238.683 81.6178L238.952 81.7874L239.364 81.8516L239.869 81.9711L240.251 81.9622L240.452 81.7644L240.478 81.5277L240.378 81.1495L240.429 80.6781L240.656 80.2437Z" fill="#F8F9FA" stroke="#202E77" stroke-opacity="0.3" stroke-width="0.8"/>
<path d="M381.208 140.075L381.275 139.676L381.178 139.236L380.955 138.653L380.744 138.393L380.446 138.151L380.282 138.111L380.136 138.144L380.081 138.94L379.918 139.592L380.058 139.883L380.575 140.06L380.916 140.14L381.208 140.075Z" fill="#F8F9FA" stroke="#202E77" stroke-opacity="0.3" stroke-width="0.8"/>
<path d="M381.018 144.006L380.595 144.255L380.449 144.287L380.37 144.628L380.507 144.904L380.882 145.13L381.19 145.138L381.531 145.218L381.731 145.08L381.773 144.917L381.7 144.242L381.635 143.948L381.278 143.795L381.018 144.006Z" fill="#F8F9FA" stroke="#202E77" stroke-opacity="0.3" stroke-width="0.8"/>
<path d="M382.074 169.797L381.921 170.844L381.565 172.016L380.9 173.254L380.595 173.953L380.602 174.336L380.958 174.488L381.301 174.642L381.551 174.664L381.787 174.689L382.736 174.386L383.782 173.064L383.249 165.645L383.44 163.034L383.357 160.639L383.218 159.67L383.258 158.876L383.159 157.729L383.004 157.379L382.852 157.106L382.097 156.888L381.797 157.277L381.887 158.026L381.841 158.512L381.945 159.336L382.162 159.903L382.175 160.301L381.815 160.765L381.372 161.263L381.637 162.049L382.019 162.733L381.275 163.606L380.83 164.027L381.186 164.871L381.626 166.096L382.056 168.323L382.074 169.797Z" fill="#F8F9FA" stroke="#202E77" stroke-opacity="0.3" stroke-width="0.8"/>
<path d="M330.219 174.478L330.18 173.949L330.041 173.671L329.791 173.651L329.733 173.739L329.163 173.943L328.794 174.425L328.784 174.734L328.865 175.1L328.876 175.498L329.062 175.919L329.354 176.545L329.606 176.567L329.989 176.56L330.481 176.282L330.651 176.014L330.757 175.451L330.494 174.955L330.219 174.478Z" fill="#F8F9FA" stroke="#202E77" stroke-opacity="0.3" stroke-width="0.8"/>
<path d="M280.916 192.224L281.413 192.036L281.733 192.027L281.946 191.596L279.981 189.877L279.664 188.854L278.547 188.81L278.74 191.705L278.898 192.068L279.701 192.431L280.916 192.224Z" fill="#F8F9FA" stroke="#202E77" stroke-opacity="0.3" stroke-width="0.8"/>
<path d="M293.431 207.587L294.189 207.113L294.739 206.054L295.533 205.4L296.544 204.623L297.455 204.499L299.939 201.198L299.227 200.202L297.969 199.865L297.16 199.751L295.961 202.123L295.167 202.774L294.313 202.81L293.593 203.445L293.033 204.109L292.587 205.299L291.925 205.845L291.549 206.235L290.918 206.928L290.221 208.02L290.001 208.069L289.493 208.275L289.176 208.652L289.065 209.539L288.308 210.013L287.856 210.744L287.743 211.629L287.639 212.899L288.232 213.768L289.553 213.691L290.59 212.677L291.083 211.783L292.186 211.063L293 210.499L293.273 209.654L293.075 208.759L292.517 208.036L293.142 207.667L293.431 207.587Z" fill="#F8F9FA" stroke="#202E77" stroke-opacity="0.3" stroke-width="0.8"/>
<path d="M328.793 220.332L328.366 220.211L328.009 219.983L327.53 219.627L327.048 218.565L327.032 217.799L326.433 216.61L325.555 215.495L325.481 214.882L325.604 214.393L325.856 213.722L325.627 212.759L323.876 212.7L321.902 211.981L321.1 211.621L320.932 211.905L321.401 212.57L320.445 213.182L319.292 212.975L318.936 212.131L318.729 211.546L317.995 211.493L317.661 209.705L318.318 209.468L319.351 210.871L320.116 211.07L320.629 210.879L320.054 210.161L319.484 209.041L319.254 207.307L318.882 206.39L318.486 205.708L318.154 205.322L317.554 204.761L316.667 203.328L315.977 203.403L314.486 205.147L314.228 206.066L315.151 207.322L314.917 208.005L314.286 208.698L313.949 210.02L313.524 210.882L313.015 211.086L312.834 210.266L312.78 209.047L312.818 208.176L313.068 207.568L312.897 207.145L312.58 205.431L312.595 203.412L311.874 202.727L310.43 203.292L309.03 205.093L309.49 206.068L310.149 207.167L309.703 207.65L308.388 206.712L307.851 206.445L305.658 207.577L304.871 208.611L304.653 210.059L303.396 211.122L302.6 211.774L301.904 212.866L301.288 214.324L300.96 216.659L300.597 218.846L299.104 219.884L298.894 221.021L298.757 222.143L298.352 223.157L297.542 225.134L297.105 226.631L296.887 227.386L297.066 228.193L297.327 229.304L297.693 230.545L297.579 231.417L297.619 231.946L297.085 232.387L296.656 232.25L296.371 232.007L295.932 232.18L295.391 232.239L294.759 231.533L294.87 230.646L295.297 230.075L296.217 229.641L295.945 228.763L290.75 229.189L290.092 229.412L289.056 229.733L288.324 229.972L288.025 230.361L287.877 231.085L289.098 232.292L291.452 234.309L293.421 235.642L294.341 235.901L295.555 236.385L297.023 236.907L297.747 236.978L298.198 236.863L298.483 236.415L298.474 234.633L298.619 233.201L299.112 232.307L299.753 231.305L300.864 230.275L309.304 226.855L313.202 225.641L318.617 223.766L321.603 223.013L322.804 222.733L323.799 222.651L325.179 222.423L326.656 222.005L327.863 222.107L328.81 221.806L329.924 221.482L330.741 221.285L331.582 220.777L331.365 220.209L328.793 220.332Z" fill="#F8F9FA" stroke="#202E77" stroke-opacity="0.3" stroke-width="0.8"/>
<path d="M285.433 215.647L286.441 215.271L286.999 214.594L286.997 213.885L286.47 213.311L285.441 213.323L284.589 213.358L283.682 213.573L283.169 213.686L282.853 214.065L283.335 215.127L284.258 215.692L284.964 215.689L285.433 215.647Z" fill="#F8F9FA" stroke="#202E77" stroke-opacity="0.3" stroke-width="0.8"/>
<path d="M282.15 216.172L281.932 215.529L281.648 215.361L280.43 216.877L279.556 217.93L278.632 218.688L276.945 218.924L276.363 219.144L276.184 219.721L276.575 220.726L277.038 221.01L277.823 220.667L278.497 220.518L279.859 220.277L281.261 219.8L282.292 219.172L282.67 218.381L282.743 217.672L282.305 217.153L282.15 216.172Z" fill="#F8F9FA" stroke="#202E77" stroke-opacity="0.3" stroke-width="0.8"/>
<path d="M273.922 221.175L273.913 220.793L274.179 220.258L273.806 220.032L273.271 221.088L272.624 221.709L271.759 222.454L271.311 222.86L271.279 223.421L271.418 223.697L272.076 224.167L273.776 223.299L274.394 222.547L274.7 221.85L275.123 221.601L275.405 221.14L274.848 221.124L273.922 221.175Z" fill="#F8F9FA" stroke="#202E77" stroke-opacity="0.3" stroke-width="0.8"/>
<path d="M333.699 210.112L333.005 208.497L332.565 207.903L332.063 207.783L331.128 208.221L330.425 208.93L330.117 209.627L329.986 210.425L330.168 211.247L330.58 212L330.774 212.113L330.978 211.99L330.987 211.681L330.748 211.025L330.586 210.292L330.829 209.301L331.48 208.697L331.817 208.76L332.154 209.239L332.452 209.479L332.347 210.042L332.63 210.286L333.151 210.48L333.498 211.632L333.892 214.036L333.662 214.396L333.212 214.511L332.237 214.418L331.564 213.876L331.418 213.215L331.742 212.59L332.03 211.742L332.462 211.262L332.374 211.206L331.992 211.29L331.6 211.606L331.279 212.308L330.647 212.926L329.845 213.963L329.536 214.647L329.018 215.162L328.506 215.351L327.162 214.971L326.942 215.019L326.9 215.184L327.745 216.15L328.218 217.521L328.793 218.241L329.62 218.442L331.957 218.294L333.37 219.674L332.622 219.84L332.988 220.388L333.749 220.282L334.212 219.872L335.338 219.607L335.531 219.089L335.572 218.926L335.531 218.396L334.89 216.678L334.099 211.499L333.699 210.112Z" fill="#F8F9FA" stroke="#202E77" stroke-opacity="0.3" stroke-width="0.8"/>
<path d="M396.305 213.987L395.094 212.548L393.877 211.355L392.775 209.985L391.694 208.362L390.633 206.906L389.862 205.924L388.755 204.537L387.971 203.558L387.2 202.575L386.154 201.806L385.302 201.226L385.033 201.054L383.929 200.374L383.094 199.868L382.317 199.9L382.317 200.594L382.365 200.814L382.324 200.976L383.256 201.923L385.115 202.821L385.205 202.876L385.827 203.816L386.219 205.514L386.205 206.84L385.981 208.612L385.379 210.067L385.049 211.078L384.264 212.805L383.558 214.206L383.136 215.084L382.482 216.013L381.964 216.528L381.532 217.008L382.1 217.42L382.692 217.596L383.428 217.035L384.514 214.919L385.487 213.61L386.087 212.848L386.372 212.323L386.84 211.666L387.14 211.215L387.26 210.713L387.108 209.747L387.17 209.333L387.731 208.669L388.355 208.286L389.288 208.542L390.01 209.304L390.642 210.011L390.677 210.863L389.858 211.752L388.882 212.276L388.48 212.61L388.073 212.855L388.099 213.325L388.821 214.088L389.08 214.493L389.056 214.729L388.601 214.83L387.865 214.7L387.525 214.621L387.198 214.54L386.955 214.901L386.618 215.453L386.235 216.229L385.643 216.683L384.933 217.086L384.306 217.456L383.836 218.114L383.45 219.213L382.559 220.119L382.174 220.126L381.801 219.9L381.461 219.822L381.267 219.634L381.056 219.374L380.781 218.897L380.36 218.45L379.848 217.948L379.46 217.649L378.69 218.066L377.738 218.355L376.775 218.659L375.486 218.882L374.657 219.372L372.788 219.817L371.567 220.01L370.076 220.355L369.154 220.497L367.955 220.778L367.386 221.058L367.126 221.268L367.136 221.666L367.884 222.194L368.739 222.451L369.234 222.879L369.212 223.129L369.261 223.35L369.147 223.528L368.635 223.719L368.16 224.071L367.9 224.282L367.372 224.398L367.1 224.628L367.356 225.031L368.023 225.192L368.881 225.449L370.594 225.686L371.759 225.95L372.735 226.118L373.973 226.368L375.394 226.67L376.731 226.667L377.689 226.684L378.985 226.843L380.679 226.993L381.93 226.947L383.403 225.821L385.114 225.351L386.386 225.054L387.548 224.95L389.146 224.736L390.645 224.698L392.054 224.677L393.343 224.454L394.811 223.653L395.202 223.258L395.646 222.762L396.456 222.182L397.542 221.464L398.231 220.682L398.577 219.744L398.723 218.313L398.504 217.053L397.043 214.823L396.305 213.987Z" fill="#F8F9FA" stroke="#202E77" stroke-opacity="0.3" stroke-width="0.8"/>
<path d="M354.451 216.597L354.069 216.681L352.845 217.199L352.439 217.442L352.268 217.786L352.44 218.149L352.718 218.703L354.328 219.177L354.988 218.955L354.623 218.421L354.774 217.987L355.245 218.036L355.578 217.732L355.934 217.253L356.184 216.584L354.756 216.591L354.451 216.597Z" fill="#F8F9FA" stroke="#202E77" stroke-opacity="0.3" stroke-width="0.8"/>
<path d="M363.299 220.454L362.246 219.995L360.316 219.823L359.545 220.238L358.385 220.341L357.884 220.928L358.719 221.436L359.49 221.728L359.781 222.277L360.779 222.827L362.1 222.75L363.584 222.713L363.788 221.899L363.534 221.095L363.299 220.454Z" fill="#F8F9FA" stroke="#202E77" stroke-opacity="0.3" stroke-width="0.8"/>
<path d="M295.716 244.977L295.522 244.791L295.133 244.491L294.922 244.231L294.712 244.046L294.262 244.454L293.746 244.966L292.561 245.306L292.448 245.5L292.399 245.973L292.554 246.323L293.283 246.7L293.917 246.713L294.514 246.565L295.36 246.149L295.79 246.283L296.007 246.221L296.551 246.176L296.632 245.852L296.495 245.573L295.716 244.977Z" fill="#F8F9FA" stroke="#202E77" stroke-opacity="0.3" stroke-width="0.8"/>
<path d="M161.448 209.779L161.4 209.559L159.169 200.797L157.975 196.094L154.069 181.148L149.853 164.449L149.057 161.34L148.217 157.886L146.218 149.751L145.516 147.346L134.943 149.545L127.861 151.003L124.656 151.573L123.837 151.707L120.545 152.235L111.015 154.481L108.448 154.94L104.321 155.667L104.248 155.684L92.5892 158.277L85.1384 159.878L83.3361 160.307L78.3362 161.274L66.2696 163.695L63.005 164.417L58.724 165.286L56.6619 165.726L51.1349 167.797L49.9297 168.973L47.5638 169.435L47.1961 169.516L46.7037 168.684L42.9686 169.371L37.9332 169.898L34.5088 170.316L28.4973 171.799L28.7725 172.556L28.7819 173.017L28.6 173.52L28.2237 174.05L28.2806 177.307L22.4821 179.685L21.9773 176.634L21.3718 173.128L11.1971 175.316L6.22321 176.4L2.6564 177.081L-2.22083 177.974L-6.13567 178.685L-7.08009 178.878L-7.49505 178.955L-7.83332 179.03L-17.6465 180.69L-35.7092 183.897L-36.4804 184.037L-39.66 184.586L-42.0879 185.045L-42.235 185.078L-46.1219 185.706L-61.2623 188.945L-59.6203 197.837L-59.3507 199.335L-57.2628 214.36L-56.5804 219.33L-54.6973 231.824L-53.5814 239.244L-51.6464 252.251L-51.5133 252.992L-50.905 256.93L-50.4994 259.601L-48.0425 276.226L-47.4114 280.405L-44.5645 300.537L-44.2858 302.635L-42.6697 314.34L-36.3236 320.788L-32.8445 324.245L-31.4492 325.602L-48.0665 341.138L-57.9793 350.44L-49.0748 359.67L-47.6176 361.168L-45.9028 363.133L-45.8394 363.489L-45.8842 364.055L-45.9139 364.339L-45.9352 364.451L-45.9716 364.845L-45.9623 365.306L-45.8957 365.677L-45.8307 365.971L-45.6921 366.249L-45.6045 366.785L-45.5687 366.946L-45.5379 367.155L-45.4892 367.376L-44.9898 367.96L-45.2005 366.31L-45.0696 366.204L-44.7618 365.503L-44.4608 365.051L-44.3402 363.852L-43.4857 363.74L-43.1234 363.984L-42.2525 363.946L-41.8224 363.45L-41.7334 362.736L-42.0089 362.257L-40.6608 361.866L-40.4077 361.965L-40.0007 361.643L-39.7793 360.9L-39.4295 360.668L-39.4319 359.96L-39.0977 358.96L-38.5752 359.23L-38.2996 359.709L-38.1501 360.386L-37.8645 360.631L-37.4906 360.857L-36.6911 360.217L-36.5968 359.179L-36.1882 358.934L-35.6348 359.274L-35.5048 359.862L-35.226 360.356L-35.7398 361.241L-36.6849 361.99L-36.7807 362.952L-36.0144 362.86L-35.0353 362.335L-34.5084 361.509L-34.4031 360.868L-34.2065 360.362L-33.8352 359.879L-33.5334 358.733L-32.5166 358.03L-32.5073 357.025L-32.8364 356.234L-31.598 356.114L-31.0987 356.559L-30.9276 356.984L-30.6668 357.466L-30.5445 357.671L-30.138 358.044L-29.3471 357.714L-29.3874 357.183L-29.3882 356.412L-29.9038 355.894L-30.1562 355.101L-29.1121 354.871L-28.4193 354.795L-28.2926 353.903L-28.5039 352.947L-28.7495 351.906L-28.2201 351.789L-27.3415 352.135L-26.8328 353.04L-26.2879 353.691L-25.679 352.538L-25.0008 353.792L-24.8374 353.833L-24.3158 353.332L-24.0166 351.477L-24.0678 350.547L-23.2605 350.291L-23.1357 351.205L-21.9571 350.466L-21.8109 349.662L-21.0693 349.807L-20.6467 350.253L-20.2628 350.246L-19.8968 350.088L-20.2723 348.458L-19.7189 348.799L-19.5162 348.6L-19.2871 348.241L-18.986 347.788L-19.021 346.932L-18.9305 346.295L-18.5318 346.284L-17.48 346.437L-17.0644 345.806L-17.4708 345.433L-17.6041 344.83L-18.1428 344.486L-18.2643 343.588L-18.5757 342.947L-18.1607 343.009L-17.8992 342.797L-17.4766 343.244L-17.3022 343.683L-16.9446 343.836L-16.7813 343.877L-16.8053 343.419L-16.6368 343.135L-16.1621 343.817L-16.0568 344.642L-15.5924 344.231L-15.3874 343.414L-14.8195 342.425L-13.883 341.987L-12.9482 341.61L-13.0047 341.006L-13.4621 341.03L-14.3081 340.831L-14.3346 339.665L-11.6773 340.172L-10.9298 339.297L-10.7573 338.334L-9.96001 338.312L-8.98173 338.481L-8.5993 338.397L-8.47952 337.892L-7.69634 337.179L-6.56392 336.929L-5.7692 336.198L-5.46667 335.822L-4.96894 334.864L-4.158 334.206L-3.07893 334.832L-2.61521 335.115L-2.0046 335.365L-1.4264 335.469L-0.927984 335.282L-0.165784 334.403L0.194151 333.938L0.918551 333.238L1.20171 332.775L1.24342 331.917L1.46846 330.772L1.60785 330.356L2.2595 330.443L2.74016 330.105L3.54339 329.064L3.7569 327.937L5.24511 326.436L5.52298 326.297L5.6693 326.959L5.19117 328.006L5.02711 328.659L4.84678 329.238L4.96383 329.768L5.15961 329.956L5.45374 329.891L6.05336 328.278L6.82568 327.166L7.69708 326.433L8.0485 326.279L8.07329 326.042L7.88268 325.529L7.56459 325.136L7.08472 324.78L6.97093 324.265L7.57907 323.806L8.25809 324.366L9.14654 324.478L9.73854 323.946L10.0499 324.587L10.2209 325.012L10.3757 325.363L11.0189 325.761L11.8014 325.742L12.2659 325.331L12.885 325.271L13.252 325.884L12.8217 326.38L12.1128 326.383L11.9425 326.729L12.9433 327.279L13.9464 327.211L15.0625 326.887L15.78 326.575L16.3309 326.206L17.488 325.719L17.9686 325.381L18.0344 324.981L17.6395 324.59L16.6712 324.187L16.4599 323.231L16.5256 322.831L17.1911 322.283L17.7187 320.763L18.4687 319.132L19.241 318.02L20.5093 317.338L20.8104 316.886L20.8599 316.413L21.0727 315.98L21.1337 315.488L21.4038 314.966L21.5346 314.86L21.8109 314.644L22.0152 314.522L22.3891 314.748L22.8055 314.887L23.1221 315.203L23.8389 315.584L24.0354 315.078L24.6956 314.855L25.722 314.474L26.1283 314.847L26.6104 314.586L26.8673 314.282L27.0964 313.923L27.2504 313.503L27.4307 312.924L27.5915 312.256L27.5512 311.725L28.7741 310.837L29.089 309.75L29.1437 308.951L29.6158 308.924L30.4231 308.668L30.8959 307.947L31.4321 306.116L32.5542 304.773L34.5795 303.538L34.9232 303L35.1917 302.4L35.6614 301.664L35.8007 301.248L35.6048 301.06L34.0089 301.027L34.1031 299.988L35.449 298.611L35.7391 297.76L36.034 297.001L37.3356 295.772L38.3834 295.139L38.7418 294.597L38.557 296.273L37.7035 297.017L37.6145 297.731L37.7182 298.479L38.0714 299.728L38.1929 300.626L38.5468 301.18L38.8882 301.259L39.19 301.578L39.6613 302.245L39.6887 302.717L39.0688 303.471L39.0269 304.329L40.1309 304.717L40.6518 304.91L41.2221 304.63L42.4573 304.496L42.8072 304.264L43.3466 303.914L44.2422 303.638L44.8588 302.87L45.4957 301.495L46.282 301.074L46.5298 301.498L46.8804 302.037L47.1808 302.279L47.3279 302.247L47.5732 301.961L47.7162 301.143L47.7904 300.432L47.788 299.723L48.5294 299.868L49.7028 299.454L50.0604 299.607L50.1039 300.152L49.8438 300.441L49.371 301.163L49.4685 301.604L49.8261 301.756L50.2332 301.435L50.6744 301.337L50.9352 300.354L51.6905 299.863L52.0976 299.542L52.5372 299.367L52.9596 298.487L53.6917 298.171L54.6214 298.12L55.1181 297.856L56.04 297.421L56.4439 297.085L57.1313 297.334L57.2451 297.848L57.5044 298.254L57.9782 298.303L58.6631 297.843L59.1515 297.89L59.5657 298.646L60.7885 297.759L61.2931 297.879L61.7994 298.075L62.4973 297.674L63.0189 297.173L63.3355 297.489L63.3434 297.873L63.3381 298.198L62.7916 298.936L63.4102 299.57L64.1848 299.168L64.4139 298.808L64.6817 298.903L65.5053 298.721L65.6198 298.542L65.7233 297.964L65.9432 297.144L66.3743 297.28L66.7505 296.888L66.6659 296.506L66.6751 295.501L67.066 295.106L67.4861 294.844L67.6827 294.338L68.8143 294.781L69.4334 294.722L70.5905 294.234L71.2755 293.775L71.8427 293.479L72.3071 293.068L73.66 292.769L74.4014 292.914L75.1352 292.674L76.3704 292.54L77.3804 292.085L78.3672 291.944L79.5236 292.152L80.7775 292.8L81.7258 293.531L82.5795 294.113L83.061 294.547L83.6151 294.193L83.9488 293.888L83.9625 293.252L83.9222 292.721L84.029 292.158L84.5637 291.716L84.7518 291.52L85.0119 291.231L85.3229 290.545L85.7131 290.845L85.7858 291.523L85.9407 291.874L86.0792 292.152L86.8354 292.293L87.3826 292.327L87.6264 291.964L87.6271 291.27L87.8399 290.837L88.2113 290.354L89.0271 289.788L89.8576 289.219L91.0354 289.174L91.8505 289.303L92.2104 288.837L92.7242 287.953L93.3409 287.184L94.351 286.729L94.913 286.759L95.9469 286.762L96.7294 286.743L97.1658 286.554L97.501 286.326L98.1449 286.029L98.8949 285.863L99.7494 285.752L100.572 286.264L100.97 286.947L101.288 287.34L101.642 287.894L102.032 288.193L102.497 287.782L103.162 287.234L103.814 287.321L104.547 287.082L105.808 286.016L106.468 285.793L106.908 285.619L107.129 285.57L106.835 284.941L106.401 284.79L105.433 285.019L104.309 285.654L104 285.722L103.804 285.534L103.837 284.987L104.013 284.315L105.09 284.232L106.141 283.614L106.165 283.377L105.847 282.984L105.307 282.703L104.56 282.883L104.063 283.147L103.754 283.216L103.494 282.734L103.532 281.861L104.476 281.807L104.597 280.608L104.272 279.137L104.18 277.677L103.616 276.938L103.412 276.366L103.047 275.829L102.246 275.066L101.308 274.733L100.113 275.398L99.3642 274.87L99.1426 274.286L98.98 273.551L98.8578 273.347L98.7029 272.995L98.455 272.572L97.9752 272.215L97.8939 271.848L97.7553 271.57L97.9572 270.739L98.5866 271.772L98.962 272.074L99.2136 272.096L99.4752 271.884L99.3451 271.296L99.6514 270.518L99.9378 270.069L100.054 271.293L100.713 272.459L101.103 272.758L101.53 273.296L102.109 273.399L102.814 273.382L103.338 273.59L104.609 274.312L105.319 275.713L105.329 277.5L105.385 278.799L105.779 279.884L106.512 280.339L106.877 280.875L107.335 280.851L107.741 281.224L107.937 281.412L108.298 281.579L108.493 281.767L108.648 282.118L108.787 282.396L108.956 282.744L109.212 283.552L109.519 283.545L110.578 283.311L112.761 282.443L114.992 281.163L115.953 281.182L116.683 280.928L117.531 279.738L117.896 278.948L117.807 278.196L119.401 277.52L119.938 277.787L120.753 277.221L121.641 278.027L122.593 278.356L122.89 279L123.506 278.926L124.011 278.351L123.244 276.346L122.964 275.082L122.843 274.183L123.689 273.055L124.48 272.726L125.115 272.74L125.702 272.533L126.572 273.189L126.898 273.965L127.772 274.713L128.217 274.213L128.03 273.715L128.429 273.009L129.228 273.064L129.879 273.846L130.539 274.317L130.939 274.383L131.59 274.47L132.355 274.301L133.015 274.078L134.13 273.816L135.238 273.108L136.09 272.287L136.385 271.528L136.375 270.435L136.09 269.496L135.419 268.626L134.515 267.746L134.349 266.996L134.415 266.596L134.514 265.648L134.373 264.662L134.309 263.673L133.452 261.611L133.205 260.493L132.886 259.468L133.245 258.232L133.473 258.567L133.806 258.956L133.928 259.161L134.321 260.94L135.659 262.665L136.222 264.793L136.916 266.814L137.31 267.899L137.798 268.64L138.391 269.511L138.97 269.615L139.869 270.125L140.339 269.389L141.274 268.319L141.542 268.414L141.577 269.27L141.945 269.188L142.286 269.267L142.744 269.243L143.207 269.526L143.859 269.613L144.372 269.423L144.965 268.197L144.777 267.698L145.012 267.014L145.581 267.428L145.812 268.472L146.406 269.343L146.823 270.115L147.41 269.908L147.677 269.371L147.392 268.431L147.643 267.821L148.18 267.393L148.881 267.701L149.303 266.05L149.23 265.372L149.934 262.486L151.254 262.04L152.084 263.63L152.491 263.309L152.956 263.669L153.502 263.625L154.528 263.244L155.082 263.585L155.588 263.781L156.499 264.274L156.981 264.013L156.816 262.569L157.117 262.117L157.695 262.22L158.512 263.752L158.787 262.904L159.708 262.392L160.521 261.117L161.228 261.038L161.628 261.798L162.345 261.485L163.46 261.855L164.188 263.33L165.464 262.338L165.966 261.749L166.717 260.889L167.147 260.392L167.357 259.945L167.39 259.398L167.278 258.96L167.033 258.551L166.724 258.126L166.245 257.569L165.934 256.928L165.659 256.449L165.618 255.918L165.684 255.518L165.667 254.812L165.616 253.883L165.479 252.987L165.22 252.582L164.975 252.173L164.749 251.915L164.419 251.679L164.057 251.297L163.944 250.859L163.83 250.483L163.733 250.042L163.563 249.693L163.572 249.383L163.664 248.962L163.731 248.638L163.934 248.439L164.192 248.212L164.454 248L164.842 247.591L165.218 247.199L165.46 246.899L165.777 246.52L166.112 246.292L168.443 246.44L168.648 245.901L167.616 240.607L163.913 221.204L163.329 218.773L162.802 216.252L161.448 209.779Z" fill="#F8F9FA" stroke="#202E77" stroke-opacity="0.3" stroke-width="0.8"/>
<path d="M150.598 263.743L150.198 263.677L150.335 264.649L150.103 265.41L150.435 265.8L150.899 266.083L151.494 266.26L151.633 265.843L151.5 265.24L151.428 263.868L151.132 263.301L150.598 263.743Z" fill="#F8F9FA" stroke="#202E77" stroke-opacity="0.3" stroke-width="0.8"/>
</g>
<circle cx="138.676" cy="202.322" r="2.86203" fill="#B7BCD3"/>
<circle cx="258.657" cy="111.228" r="2.86203" fill="#B7BCD3"/>
<circle cx="197.124" cy="64.0049" r="2.86203" fill="#B7BCD3"/>
<circle cx="221.451" cy="9.62628" r="2.86203" fill="#B7BCD3"/>
<circle cx="46.8669" cy="266.494" r="2.86203" fill="#B7BCD3"/>
<rect x="53.791" y="-157.204" width="318.665" height="558.004" transform="rotate(27.2299 53.791 -157.204)" fill="url(#paint0_linear_241_3259)"/>
</g>
</g>
<defs>
<linearGradient id="paint0_linear_241_3259" x1="368.617" y1="144.182" x2="114.257" y2="155.427" gradientUnits="userSpaceOnUse">
<stop stop-color="#F8F9FA" stop-opacity="0"/>
<stop offset="1" stop-color="#F8F9FA"/>
</linearGradient>
</defs>
</svg>
